<svg xmlns="http://www.w3.org/2000/svg" width="523.182" height="161" viewBox="0 0 523.182 161"><defs><style>.a{fill:#e6e6e6;}</style></defs><path class="a" d="M17920.75,5588.177c.127-15.274-3.48-32.726.141-49.392-.611-22.417,1.176-26.247-.141-45.54-.666-9.784,2.156-23.906-.482-37.443.033-2.439.074-4.785.119-7.148.162-8.3.363-14.4.363-14.4a28.2,28.2,0,0,0,22.705,0c12.092-5.384,11.936,4.05,30.42,0s21.205,5.875,46.529,0,45.859-5.59,75.707,0,62.193-4.488,87.535,0,41.775,0,55.5,0h39.295s21.3-8.949,55.631,0,58.791,0,58.791,0h48.73s1.934,19.5,0,37.109a163.269,163.269,0,0,0,0,33.43s1.775,14.144-.441,26.432c-.008.907-.016,1.82-.021,2.9,1.377,9.206,0,21.766.463,27.377a111.691,111.691,0,0,1,0,21.578s-20.807,9.524-38.084,5.1-52.486,3.048-69.437,0-39.207,5.622-54.4.961-71.893.561-76.82-.961c-9.109-2.812-48.621-3.734-66.145,0s-72.842,3.667-86.078,0c-6.9-1.91-46.123,3.672-73.848-1.314C17954.959,5584.22,17920.75,5588.177,17920.75,5588.177Z" transform="translate(-17919.273 -5429.952)"/></svg>