<svg xmlns="http://www.w3.org/2000/svg" width="401.922" height="80.218" viewBox="0 0 401.922 80.218"><defs><style>.a{fill:#f5a84c;}</style></defs><path class="a" d="M17920.41,5508.789c.1-7.61-2.674-16.307.109-24.612-.473-11.167.9-13.076-.109-22.689-.512-4.875,1.656-11.912-.369-18.655.025-1.216.055-2.384.09-3.562.127-4.136.279-7.176.279-7.176a32.464,32.464,0,0,0,17.443,0c9.289-2.682,9.168,2.019,23.369,0s16.293,2.929,35.746,0,35.23-2.784,58.16,0,47.779-2.237,67.246,0,32.094,0,42.637,0h30.189s16.365-4.458,42.736,0,45.164,0,45.164,0h37.438a67.413,67.413,0,0,1,0,18.49,52.972,52.972,0,0,0,0,16.658s1.363,7.047-.34,13.169c-.006.452-.012.906-.016,1.447,1.057,4.586,0,10.845.355,13.641a36.254,36.254,0,0,1,0,10.751s-15.984,4.745-29.256,2.54-40.322,1.519-53.346,0-30.117,2.8-41.795.478-55.229.279-59.014-.478c-7-1.4-37.352-1.862-50.816,0s-55.953,1.825-66.125,0c-5.3-.952-35.434,1.83-56.73-.654C17946.688,5506.816,17920.41,5508.789,17920.41,5508.789Z" transform="translate(-17919.277 -5429.952)"/></svg>