<svg xmlns="http://www.w3.org/2000/svg" width="1009.618" height="354.132" viewBox="0 0 1009.618 354.132"><defs><style>.a{fill:#f2f2f2;}.b{fill:#ccc;}.c{fill:#3f3d56;}.d{fill:#e6e6e6;}.e{fill:#fff;}.f{fill:#ffb8b8;}.g{fill:#6c63ff;}.h{fill:#bc7837;}.i{fill:#2f2e41;}.j{fill:#74481e;}.k{fill:#c67524;}.l{fill:#7b4612;}.m{fill:#232226;}.n{fill:#ff8763;}.o{fill:#ffc400;}.p{fill:#a0616a;}.q{fill:#f03;}.r{fill:#f20e0e;}.s{fill:#f7ca73;}.t{fill:#ffc963;}.u{fill:#b3b3b3;}.v{fill:#412f2e;}.w{fill:#ff6363;}</style></defs><path class="a" d="M105.422,616a13.5,13.5,0,0,1,27,0" transform="translate(-82.364 -304.99)"/><path class="b" d="M122.488,617.535a.365.365,0,0,1-.365-.365v-7.115a.365.365,0,1,1,.73,0v7.115A.365.365,0,0,1,122.488,617.535Z" transform="translate(-85.932 -306.526)"/><path class="b" d="M121.3,615.338a.363.363,0,0,1-.237-.088l-4.378-3.758a.365.365,0,1,1,.475-.554l4.378,3.758a.365.365,0,0,1-.238.642Z" transform="translate(-84.743 -306.774)"/><path class="a" d="M158.31,616a13.5,13.5,0,0,1,27,0" transform="translate(-93.66 -304.99)"/><path class="b" d="M175.376,617.535a.365.365,0,0,1-.365-.365v-7.114a.365.365,0,1,1,.73,0v7.115a.365.365,0,0,1-.365.365Z" transform="translate(-97.227 -306.526)"/><path class="b" d="M174.187,615.338a.363.363,0,0,1-.238-.088l-4.378-3.758a.365.365,0,0,1,.475-.554l4.378,3.758a.365.365,0,0,1-.238.642Z" transform="translate(-96.038 -306.774)"/><circle class="a" cx="25.952" cy="25.952" r="25.952" transform="translate(733.355 1.029)"/><ellipse class="a" cx="23.593" cy="5.505" rx="23.593" ry="5.505" transform="translate(61.966 328.966)"/><path class="a" d="M168.949,332.687c6.187-19.321,21.3-34.306,39.214-43.218,21.259-10.574,45.689-11.771,68.772-7.656,24.919,4.443,48.208,14.684,70.751,25.861,22.112,10.963,43.866,22.539,66.862,31.6a432.826,432.826,0,0,0,143.873,29.8c44.378,1.48,91.828-3.382,129.826-28.325,34.817-22.855,56.972-60.559,68.511-99.861q2.216-7.547,3.94-15.225c.335-1.478-1.939-2.11-2.275-.627-9.308,41.042-29.156,81.6-63.069,107.766-36.679,28.3-84.819,34.837-129.867,34.088a430.738,430.738,0,0,1-145.749-28.126c-23.587-8.98-45.845-20.64-68.387-31.9-22.047-11.01-44.712-21.316-68.956-26.394-22.137-4.637-45.838-4.919-67.182,3.332-17.575,6.794-33.6,18.9-42.977,35.469a68.023,68.023,0,0,0-5.561,12.784C166.21,333.509,168.487,334.13,168.949,332.687Z" transform="translate(-95.433 -224.191)"/><path class="c" d="M580.372,590.161a.786.786,0,1,0,0-1.573H572.9v-3.146h7.471a.786.786,0,1,0,0-1.573h-63.7a.786.786,0,0,0,0,1.573h7.471v3.146h-7.471a.786.786,0,0,0,0,1.573h7.471v3.146h-7.471a.786.786,0,0,0,0,1.573h7.471v3.146h-6.685a1.573,1.573,0,0,0,0,3.146h6.364a1.17,1.17,0,0,0-.072.393v11.01a1.18,1.18,0,0,0,2.359,0v-11.01a1.178,1.178,0,0,0-.072-.393h44.97a1.17,1.17,0,0,0-.072.393v11.01a1.18,1.18,0,0,0,2.359,0v-11.01a1.169,1.169,0,0,0-.072-.393h6.364a1.573,1.573,0,0,0,0-3.146H572.9V594.88h7.471a.786.786,0,1,0,0-1.573H572.9v-3.146Zm-54.656-4.719h45.612v3.146H525.716Zm45.612,12.583H525.716V594.88h45.612Zm0-4.718H525.716v-3.146h45.612Z" transform="translate(-85.424 -301.011)"/><path class="d" d="M279.228,537.175c0-13.889-11.267-46.847-25.165-46.847S228.9,523.286,228.9,537.175a25.165,25.165,0,0,0,50.331,0Z" transform="translate(-108.736 -281.033)"/><path class="a" d="M271.229,537.175c0-13.889-11.267-46.847-25.165-46.847S220.9,523.286,220.9,537.175a25.165,25.165,0,0,0,50.331,0Z" transform="translate(-107.028 -281.033)"/><path class="b" d="M253.684,601.983a.786.786,0,0,1-.786-.786v-70.1a.786.786,0,1,1,1.573,0v70.1A.786.786,0,0,1,253.684,601.983Z" transform="translate(-113.862 -289.571)"/><path class="b" d="M253.684,542.7a.786.786,0,0,1-.556-1.342l10.284-10.285a.786.786,0,0,1,1.112,1.112L254.24,542.471A.784.784,0,0,1,253.684,542.7Z" transform="translate(-113.862 -289.686)"/><path class="c" d="M621.684,601.983a.787.787,0,0,1-.786-.786v-70.1a.786.786,0,1,1,1.573,0v70.1A.786.786,0,0,1,621.684,601.983Z" transform="translate(-95.768 -289.571)"/><path class="d" d="M715.228,537.175c0-13.889-11.267-46.847-25.166-46.847S664.9,523.286,664.9,537.175a25.166,25.166,0,0,0,50.331,0Z" transform="translate(-90.77 -281.033)"/><path class="a" d="M707.229,537.175c0-13.889-11.267-46.847-25.165-46.847S656.9,523.286,656.9,537.175a25.165,25.165,0,0,0,50.331,0Z" transform="translate(-90.571 -281.033)"/><path class="b" d="M689.684,601.983a.786.786,0,0,1-.786-.786v-70.1a.786.786,0,0,1,1.573,0v70.1A.787.787,0,0,1,689.684,601.983Z" transform="translate(-98.223 -289.571)"/><path class="b" d="M689.684,542.7a.786.786,0,0,1-.556-1.342l10.284-10.285a.786.786,0,0,1,1.112,1.112L690.24,542.471A.783.783,0,0,1,689.684,542.7Z" transform="translate(-96.845 -289.686)"/><path class="d" d="M355.519,266.175H342.936a3.543,3.543,0,0,1-3.539-3.539v-29.1A3.543,3.543,0,0,1,342.936,230h12.583a3.543,3.543,0,0,1,3.539,3.539v29.1a3.543,3.543,0,0,1-3.539,3.539Z" transform="translate(-84.556 -225.432)"/><path class="d" d="M403.569,546.674H339.082a6.692,6.692,0,0,1-6.685-6.685v-260.3A6.692,6.692,0,0,1,339.082,273h64.486a6.692,6.692,0,0,1,6.685,6.685v260.3A6.692,6.692,0,0,1,403.569,546.674Z" transform="translate(-80.703 -234.616)"/><path class="a" d="M354.569,546.674H290.082a6.692,6.692,0,0,1-6.685-6.685v-260.3A6.692,6.692,0,0,1,290.082,273h64.486a6.692,6.692,0,0,1,6.685,6.685v260.3A6.692,6.692,0,0,1,354.569,546.674Z" transform="translate(-79.824 -234.616)"/><path class="a" d="M340.519,266.175H327.937a3.543,3.543,0,0,1-3.539-3.539v-29.1A3.543,3.543,0,0,1,327.937,230h12.583a3.543,3.543,0,0,1,3.539,3.539v29.1a3.543,3.543,0,0,1-3.539,3.539Z" transform="translate(-84.074 -225.432)"/><path class="e" d="M319.306,340.738H304.364a1.968,1.968,0,0,1-1.966-1.966V315.966A1.968,1.968,0,0,1,304.364,314h14.942a1.968,1.968,0,0,1,1.966,1.966v22.806A1.968,1.968,0,0,1,319.306,340.738Z" transform="translate(-83.408 -243.372)"/><path class="e" d="M356.306,340.738H341.364a1.968,1.968,0,0,1-1.966-1.966V315.966A1.968,1.968,0,0,1,341.364,314h14.942a1.968,1.968,0,0,1,1.966,1.966v22.806A1.968,1.968,0,0,1,356.306,340.738Z" transform="translate(-84.602 -243.372)"/><path class="e" d="M319.306,393.738H304.364a1.968,1.968,0,0,1-1.966-1.966V368.966A1.968,1.968,0,0,1,304.364,367h14.942a1.968,1.968,0,0,1,1.966,1.966v22.806A1.968,1.968,0,0,1,319.306,393.738Z" transform="translate(-83.408 -254.692)"/><path class="e" d="M356.306,393.738H341.364a1.968,1.968,0,0,1-1.966-1.966V368.966A1.968,1.968,0,0,1,341.364,367h14.942a1.968,1.968,0,0,1,1.966,1.966v22.806A1.968,1.968,0,0,1,356.306,393.738Z" transform="translate(-84.602 -254.692)"/><path class="e" d="M319.306,446.738H304.364a1.969,1.969,0,0,1-1.966-1.966V421.966A1.968,1.968,0,0,1,304.364,420h14.942a1.968,1.968,0,0,1,1.966,1.966v22.806a1.968,1.968,0,0,1-1.966,1.966Z" transform="translate(-83.408 -266.012)"/><path class="e" d="M356.306,446.738H341.364a1.968,1.968,0,0,1-1.966-1.966V421.966A1.968,1.968,0,0,1,341.364,420h14.942a1.968,1.968,0,0,1,1.966,1.966v22.806a1.968,1.968,0,0,1-1.966,1.966Z" transform="translate(-84.602 -266.012)"/><path class="e" d="M319.306,499.738H304.364a1.968,1.968,0,0,1-1.966-1.966V474.966A1.968,1.968,0,0,1,304.364,473h14.942a1.968,1.968,0,0,1,1.966,1.966v22.806A1.968,1.968,0,0,1,319.306,499.738Z" transform="translate(-83.408 -277.332)"/><path class="e" d="M356.306,499.738H341.364a1.968,1.968,0,0,1-1.966-1.966V474.966A1.968,1.968,0,0,1,341.364,473h14.942a1.968,1.968,0,0,1,1.966,1.966v22.806A1.968,1.968,0,0,1,356.306,499.738Z" transform="translate(-84.602 -277.332)"/><path class="e" d="M319.306,552.738H304.364a1.969,1.969,0,0,1-1.966-1.966V527.966A1.968,1.968,0,0,1,304.364,526h14.942a1.968,1.968,0,0,1,1.966,1.966v22.806A1.968,1.968,0,0,1,319.306,552.738Z" transform="translate(-83.408 -288.651)"/><path class="e" d="M356.306,552.738H341.364a1.968,1.968,0,0,1-1.966-1.966V527.966A1.968,1.968,0,0,1,341.364,526h14.942a1.968,1.968,0,0,1,1.966,1.966v22.806A1.968,1.968,0,0,1,356.306,552.738Z" transform="translate(-84.602 -288.651)"/><path class="d" d="M768.519,444.593H755.936a3.543,3.543,0,0,1-3.539-3.539V424.539A3.543,3.543,0,0,1,755.937,421h12.583a3.543,3.543,0,0,1,3.539,3.539v16.515A3.543,3.543,0,0,1,768.519,444.593Z" transform="translate(-97.816 -266.226)"/><path class="d" d="M888.569,584.41H824.082a6.692,6.692,0,0,1-6.684-6.685V452.685A6.692,6.692,0,0,1,824.082,446h64.487a6.692,6.692,0,0,1,6.684,6.685V577.725A6.692,6.692,0,0,1,888.569,584.41Z" transform="translate(-89.41 -271.565)"/><path class="a" d="M826.754,584.41H715.082a6.692,6.692,0,0,1-6.685-6.685V452.685A6.692,6.692,0,0,1,715.082,446H826.754a6.692,6.692,0,0,1,6.684,6.685V577.725a6.692,6.692,0,0,1-6.685,6.685Z" transform="translate(-79.103 -271.565)"/><path class="a" d="M753.519,444.593H740.936a3.543,3.543,0,0,1-3.539-3.539V424.539A3.543,3.543,0,0,1,740.936,421h12.583a3.543,3.543,0,0,1,3.539,3.539v16.515A3.543,3.543,0,0,1,753.519,444.593Z" transform="translate(-97.334 -266.226)"/><path class="e" d="M774.306,517.238H759.364a1.969,1.969,0,0,1-1.966-1.966V492.466a1.968,1.968,0,0,1,1.966-1.966h14.942a1.968,1.968,0,0,1,1.966,1.966v22.806A1.969,1.969,0,0,1,774.306,517.238Z" transform="translate(-98.097 -281.069)"/><path class="e" d="M811.306,517.238H796.364a1.968,1.968,0,0,1-1.966-1.966V492.466a1.968,1.968,0,0,1,1.966-1.966h14.942a1.968,1.968,0,0,1,1.966,1.966v22.806a1.968,1.968,0,0,1-1.966,1.966Z" transform="translate(-99.291 -281.069)"/><path class="e" d="M774.306,570.238H759.364a1.968,1.968,0,0,1-1.966-1.966V545.466a1.968,1.968,0,0,1,1.966-1.966h14.942a1.969,1.969,0,0,1,1.966,1.966v22.806A1.969,1.969,0,0,1,774.306,570.238Z" transform="translate(-98.097 -292.389)"/><path class="e" d="M811.306,570.238H796.364a1.968,1.968,0,0,1-1.966-1.966V545.466a1.968,1.968,0,0,1,1.966-1.966h14.942a1.969,1.969,0,0,1,1.966,1.966v22.806a1.968,1.968,0,0,1-1.966,1.966Z" transform="translate(-99.291 -292.389)"/><path class="d" d="M1084.756,622.073H77.066a.8.8,0,1,1,0-1.573H1084.756a.8.8,0,1,1,0,1.573Z" transform="translate(-76.102 -308.835)"/><path class="d" d="M418.821,657.073H345.684a.786.786,0,1,1,0-1.573h73.137a.786.786,0,1,1,0,1.573Z" transform="translate(-81.149 -316.31)"/><path class="d" d="M649.821,657.073H576.684a.786.786,0,1,1,0-1.573h73.137a.786.786,0,0,1,0,1.573Z" transform="translate(-85.485 -316.31)"/><path class="d" d="M880.821,657.073H807.684a.786.786,0,0,1,0-1.573h73.137a.786.786,0,0,1,0,1.573Z" transform="translate(-89.822 -316.31)"/><path class="d" d="M478.228,537.175c0-13.889-11.267-46.847-25.165-46.847S427.9,523.286,427.9,537.175a25.165,25.165,0,0,0,50.331,0Z" transform="translate(-84.866 -281.033)"/><path class="a" d="M470.229,537.175c0-13.889-11.267-46.847-25.165-46.847S419.9,523.286,419.9,537.175a25.165,25.165,0,0,0,50.331,0Z" transform="translate(-84.667 -281.033)"/><path class="b" d="M452.684,601.983a.786.786,0,0,1-.786-.786v-70.1a.786.786,0,1,1,1.573,0v70.1A.786.786,0,0,1,452.684,601.983Z" transform="translate(-89.667 -289.571)"/><path class="b" d="M452.684,542.7a.786.786,0,0,1-.556-1.342l10.284-10.285a.786.786,0,0,1,1.112,1.112L453.24,542.471a.785.785,0,0,1-.556.23Z" transform="translate(-88.823 -289.686)"/><path class="d" d="M989.229,537.175c0-13.889-11.267-46.847-25.165-46.847S938.9,523.286,938.9,537.175a25.166,25.166,0,0,0,50.331,0Z" transform="translate(-74.767 -281.033)"/><path class="a" d="M981.229,537.175c0-13.889-11.267-46.847-25.166-46.847S930.9,523.286,930.9,537.175a25.165,25.165,0,0,0,50.331,0Z" transform="translate(-73.059 -281.033)"/><path class="b" d="M963.684,601.983a.787.787,0,0,1-.787-.786v-70.1a.786.786,0,1,1,1.573,0v70.1A.786.786,0,0,1,963.684,601.983Z" transform="translate(-79.893 -289.571)"/><path class="b" d="M963.684,542.7a.786.786,0,0,1-.556-1.342l10.284-10.285a.786.786,0,0,1,1.112,1.112L964.24,542.471A.784.784,0,0,1,963.684,542.7Z" transform="translate(-79.893 -289.686)"/><path class="c" d="M627.665,555.233h-17.3a1.968,1.968,0,0,1-1.966-1.966v-17.3A1.968,1.968,0,0,1,610.363,534h17.3a1.968,1.968,0,0,1,1.966,1.966v17.3A1.968,1.968,0,0,1,627.665,555.233Z" transform="translate(-93.003 -290.36)"/><path class="f" d="M846,571.7a1.337,1.337,0,0,1,.874,1.854l3.419,3.3-2.409.54-2.878-3.214A1.344,1.344,0,0,1,846,571.7Z" transform="translate(-103.097 -298.402)"/><path class="g" d="M851.38,580.185l-4.218-3.957a.6.6,0,0,1-.016-.857l.861-.872a.6.6,0,0,1,.789-.055l3.535,2.7,2.206-5.349a1.669,1.669,0,0,1,2.278-.863h0a1.659,1.659,0,0,1,.913,1.769c-.4,2.433-2.825,5.649-4.234,7.35a1.45,1.45,0,0,1-2.113.132Z" transform="translate(-102.38 -298.212)"/><path class="e" d="M848.711,576.5l-3.105-4.5a.266.266,0,0,1,.068-.37l.125-.086a.266.266,0,0,1,.37.068l3.105,4.5a.266.266,0,0,1-.068.37l-.124.086a.266.266,0,0,1-.37-.068Z" transform="translate(-103.513 -298.368)"/><path class="c" d="M847.729,576.564l-2.578-3.739a.732.732,0,0,1,.187-1.017l.263-.181,3.407,4.942-.263.181h0a.732.732,0,0,1-1.017-.187Z" transform="translate(-103.457 -298.397)"/><path class="h" d="M772.318,392.981,770.7,392.8l.215-6.3,2.125.245Z" transform="translate(-27.692 -82.547)"/><path class="i" d="M847.737,620.318l-5.22-.6.008-.066a2.045,2.045,0,0,1,2.266-1.8h0l3.189.368Z" transform="translate(-103.121 -308.266)"/><path class="h" d="M795.569,391.591l-1.557.481-2.6-5.777,2.3-.71Z" transform="translate(-28.126 -82.353)"/><path class="i" d="M872.5,618.629l-5.021,1.551-.02-.063a2.045,2.045,0,0,1,1.351-2.558h0l3.067-.947Z" transform="translate(-104.054 -308.004)"/><path class="i" d="M846.435,610.761a.663.663,0,0,1-.443-.809l.976-11.234a3.393,3.393,0,0,1,.471-1.449l5.907-9.8,5.286.95.034.014c2.569,1.574,4.85,9.2,7.056,16.582.343,1.147.7,2.334,1.044,3.468a.668.668,0,0,1-.359.861l-1.6.674a.663.663,0,0,1-.841-.294l-8.229-15.065a.133.133,0,0,0-.1-.069.129.129,0,0,0-.114.044l-4.776,5.4-1.755,10.3-.007.022a.665.665,0,0,1-.786.379l-1.721.033h-.011Z" transform="translate(-100.613 -301.779)"/><path class="j" d="M854.656,584.252l-.033-.011-.01-.034c-.025-.082-2.441-8.258-.264-13.471l0,0c.064-.124,1.583-3.042,3.348-3.334l.047-.008.574,1.073a9.456,9.456,0,0,1,1.876,8.946c.126.454,1.841,6.693.909,7.625a1.711,1.711,0,0,1-1.164.292A23.5,23.5,0,0,1,854.656,584.252Z" transform="translate(-103.086 -297.491)"/><circle class="i" cx="4.121" cy="4.121" r="4.121" transform="translate(750.129 260.642)"/><circle class="k" cx="3.265" cy="3.265" r="3.265" transform="translate(748.879 262.334)"/><path class="i" d="M857.31,563.791c-.3.106-.663.2-.9-.02a.794.794,0,0,1-.052-.893,4.036,4.036,0,0,0,.408-.858,1.32,1.32,0,0,0-.485-1.209,3.588,3.588,0,0,0-1.183-.6l-2.285-.812a2.64,2.64,0,0,1-1.492-.967,1.789,1.789,0,0,1,.712-2.307,2.9,2.9,0,0,1,2.511-.049,12.928,12.928,0,0,0,1.339.536c.915.241,1.956.025,2.76.541a2.548,2.548,0,0,1,1,2.223,6.869,6.869,0,0,1-.672,2.458,4.576,4.576,0,0,1-.745,1.31,1.542,1.542,0,0,1-1.305.562Z" transform="translate(-102.911 -295.02)"/><circle class="i" cx="2.659" cy="2.659" r="2.659" transform="translate(755.666 260.11)"/><path class="e" d="M857.21,563.154a.266.266,0,1,1,.365.246v.585a.1.1,0,1,1-.2,0V563.4A.266.266,0,0,1,857.21,563.154Z" transform="translate(-104.474 -296.53)"/><path class="f" d="M846.338,575.26a1.337,1.337,0,0,1,1.465,1.433l4.354,1.9-2.069,1.346-3.818-2.01a1.344,1.344,0,0,1,.068-2.668Z" transform="translate(-102.948 -299.171)"/><path class="l" d="M854.7,580.6l-5.333-2.239a.6.6,0,0,1-.314-.8l.5-1.118a.6.6,0,0,1,.72-.326l4.255,1.3.2-5.782a1.669,1.669,0,0,1,1.834-1.6h0a1.659,1.659,0,0,1,1.473,1.34c.473,2.42-.678,6.28-1.407,8.365a1.449,1.449,0,0,1-1.934.86Z" transform="translate(-102.726 -298.054)"/><path class="m" d="M158.677,580.711h-8.168v-2.479c2.581-1.8,4.868-1.64,7.876.146Z" transform="translate(-91.994 -299.535)"/><path class="f" d="M71.444,411.668H69.655l-.267-6.9h2.056Z" transform="translate(-14.82 -86.451)"/><path class="i" d="M147.118,639.307h-5.766v-.073a2.244,2.244,0,0,1,2.244-2.244h3.521Z" transform="translate(-90.038 -312.356)"/><path class="f" d="M84.809,411.668H86.6l.267-6.9H84.808Z" transform="translate(-18.113 -86.451)"/><path class="i" d="M160.331,636.99h3.522a2.244,2.244,0,0,1,2.244,2.244v.073h-5.766Z" transform="translate(-94.092 -312.356)"/><path d="M157.492,629.73a.66.66,0,0,1-.641-.514l-4.432-19.331a.213.213,0,0,0-.214-.171h0a.213.213,0,0,0-.213.173l-4.07,19.2a.66.66,0,0,1-.642.52h-1.939a.656.656,0,0,1-.655-.7l1.444-24.336.581-.172h.011l11.414.1,2.431,24.31a.656.656,0,0,1-.6.718l-2.422.2Z" transform="translate(-90.75 -305.397)"/><circle class="f" cx="3.582" cy="3.582" r="3.582" transform="translate(58.446 269.567)"/><path class="c" d="M150.987,601.5a6.185,6.185,0,0,1-1.856-.261,4.1,4.1,0,0,1-2.485-2.1.657.657,0,0,1-.049-.489c.4-1.348,2.3-8.358,1.086-13.929a5.9,5.9,0,0,1,.839-4.538,5.831,5.831,0,0,1,3.782-2.544h0c.2-.039.405-.072.6-.1a5.81,5.81,0,0,1,4.7,1.548,5.954,5.954,0,0,1,1.869,4.72l-.936,15.023a.651.651,0,0,1-.35.54A17.621,17.621,0,0,1,150.987,601.5Z" transform="translate(-91.153 -299.651)"/><path class="i" d="M157.908,567.418a4.4,4.4,0,0,0-4.821-2.711l1.129.913c-1.4.047-2.881-.053-3.882.931.319-.009.737.673,1.056.665a1.673,1.673,0,0,0-1.4.966,2.751,2.751,0,0,0-.162,1.75,20.308,20.308,0,0,0,1.258,2.5c-.042-1.425,2.764-4.824,4.134-4.469a3.76,3.76,0,0,0-1.736,1.318,5.091,5.091,0,0,1,3.019-.494,2.136,2.136,0,0,0,.72.04.879.879,0,0,0,.521-1.4Z" transform="translate(-91.833 -296.905)"/><path class="n" d="M149.848,600.726a.656.656,0,0,1-.263-.055l-6.8-2.967a.652.652,0,0,1-.372-.77l4.5-17a2.46,2.46,0,0,1,3.054-1.736l1.8.513L150.5,600.108a.658.658,0,0,1-.313.521.65.65,0,0,1-.341.1Z" transform="translate(-90.261 -299.78)"/><path class="n" d="M165.329,596.934l-.3-1.127-.433-1.639-.209-.786-.433-1.635-3.126-11.81a2.457,2.457,0,0,0-3.054-1.735l-1.8.513.891,15.048.092,1.571.058.99h0l.093,1.562.131,2.221a.655.655,0,0,0,.917.563l6.8-2.967a.651.651,0,0,0,.372-.77Z" transform="translate(-93.162 -299.78)"/><path class="b" d="M88.528,372.895,81.1,374.846l-.092-1.57,7.087-2.016Z" transform="translate(-17.301 -79.294)"/><path class="b" d="M89.21,375.978l-7.918,2.08L81.2,376.5v0l7.579-2.156Z" transform="translate(-17.342 -79.951)"/><path class="b" d="M74.959,373.644l-.092,1.541-7.285-2.17.427-1.614Z" transform="translate(-14.434 -79.324)"/><path class="b" d="M74.635,376.852l-7.434-2.4-.428,1.618,7.771,2.315Z" transform="translate(-14.261 -79.976)"/><path class="f" d="M143.045,600.035a1.567,1.567,0,0,0,1.027-2.172l3.495-10.972-2.478-.519-3.2,10.757a1.575,1.575,0,0,0,1.16,2.906Z" transform="translate(-89.976 -301.546)"/><path class="c" d="M148.473,580.173h0c.712.073,1.112.873.935,1.869l-.849,4.781c-.064.358-.359.642-.6.581l-2.872-.718c-.221-.055-.3-.369-.177-.683l1.724-4.325A2.081,2.081,0,0,1,148.473,580.173Z" transform="translate(-90.785 -300.222)"/><path class="o" d="M153.693,563h0a4.666,4.666,0,0,1,4.664,4.521h.879a.292.292,0,0,1,.292.292v1.167a.292.292,0,0,1-.292.292h-9.918a.292.292,0,0,1-.292-.292v-1.312A4.667,4.667,0,0,1,153.693,563Z" transform="translate(-91.677 -296.553)"/><path class="d" d="M154.926,598.47h-2.062a.265.265,0,0,1-.265-.24l-.413-4.23H155.6l-.413,4.23a.265.265,0,0,1-.265.24Z" transform="translate(-92.352 -303.175)"/><path class="b" d="M155.527,594.358h-3.406a.266.266,0,0,1-.266-.266v-.639a.267.267,0,0,1,.266-.266h3.406a.267.267,0,0,1,.266.266v.639A.266.266,0,0,1,155.527,594.358Z" transform="translate(-92.282 -303.001)"/><path class="f" d="M153.954,594.84a1.523,1.523,0,0,1,.237.047l5.491-4.709-.321-1.728,2.544-.825.865,3a1.167,1.167,0,0,1-.5,1.309l-6.954,4.4a1.531,1.531,0,1,1-1.365-1.5Z" transform="translate(-92.368 -301.813)"/><path class="c" d="M161.38,580.663h0c.76-.213,1.52.366,1.774,1.352l1.221,4.73c.091.355-.086.731-.364.771l-3.253.468c-.25.036-.471-.221-.48-.559l-.126-4.655a2.047,2.047,0,0,1,1.228-2.107Z" transform="translate(-94.051 -300.317)"/><path class="d" d="M207.848,595.489h-2.477a.318.318,0,0,1-.318-.289l-.5-5.082h4.105l-.5,5.082a.318.318,0,0,1-.318.289Z" transform="translate(-103.538 -302.346)"/><path class="b" d="M208.571,590.549h-4.092a.32.32,0,0,1-.32-.32v-.767a.32.32,0,0,1,.32-.32h4.092a.32.32,0,0,1,.32.32v.767A.32.32,0,0,1,208.571,590.549Z" transform="translate(-103.453 -302.137)"/><path class="b" d="M238.53,631.592a29.354,29.354,0,0,1-4.219-7.873.754.754,0,0,1,.356-.908l6.159-3.3a.744.744,0,0,1,.653-.026.757.757,0,0,1,.431.505,17.93,17.93,0,0,0,3.933,7.341.757.757,0,0,1,.182.639.744.744,0,0,1-.384.529l-6.159,3.3A.754.754,0,0,1,238.53,631.592Z" transform="translate(-109.884 -308.604)"/><path class="e" d="M239.093,631.419a.228.228,0,0,0,.284.058l6.159-3.3a.218.218,0,0,0,.114-.157.231.231,0,0,0-.057-.2,18.46,18.46,0,0,1-4.049-7.557.231.231,0,0,0-.133-.157.218.218,0,0,0-.195.008l-6.159,3.3a.228.228,0,0,0-.109.269A28.829,28.829,0,0,0,239.093,631.419Z" transform="translate(-110.027 -308.747)"/><path class="b" d="M241.987,625.2l-3.354,1.481a.526.526,0,0,1-.693-.269l-.083-.188a.526.526,0,0,1,.269-.693l3.354-1.481a.526.526,0,0,1,.693.269l.083.188A.526.526,0,0,1,241.987,625.2Z" transform="translate(-110.64 -309.583)"/><path class="b" d="M243.546,628.1l-3.354,1.481a.526.526,0,0,1-.693-.269l-.083-.188a.526.526,0,0,1,.269-.693l3.354-1.481a.526.526,0,0,1,.693.269l.083.188A.526.526,0,0,1,243.546,628.1Z" transform="translate(-110.973 -310.202)"/><path class="p" d="M234.195,619.777a1.882,1.882,0,0,1-.361-2.864l-1.414-20.074,4.075.4.112,19.659a1.893,1.893,0,0,1-2.411,2.884Z" transform="translate(-109.488 -303.781)"/><path class="c" d="M233.421,603.162a.785.785,0,0,1-.326-.6l-.3-5.411a2.173,2.173,0,0,1,4.266-.688l1.312,4.837a.79.79,0,0,1-.555.968l-3.731,1.011A.786.786,0,0,1,233.421,603.162Z" transform="translate(-109.568 -303.359)"/><path class="p" d="M147.8,430.948h-2.148l-1.022-8.286H147.8Z" transform="translate(-30.889 -90.272)"/><path class="i" d="M142.787,432.417h4.623v2.609h-6.752v-.48a2.129,2.129,0,0,1,2.129-2.129Z" transform="translate(-30.042 -92.355)"/><path class="p" d="M158.047,430.948H155.9l-1.022-8.286h3.171Z" transform="translate(-33.079 -90.272)"/><path class="i" d="M153.037,432.417h4.623v2.609h-6.752v-.48a2.129,2.129,0,0,1,2.129-2.129Z" transform="translate(-32.231 -92.355)"/><path class="i" d="M223.552,645.123l-2.365-.113a.788.788,0,0,1-.751-.782c-.624-9.624-1.487-19.943-.165-23.929a.789.789,0,0,1,.9-.786l9.461,1.373a.784.784,0,0,1,.675.775c1.208,4.72,1.263,13.279,1.217,22.173a.789.789,0,0,1-.789.794h-2.55a.785.785,0,0,1-.779-.666l-1.573-10a.613.613,0,0,0-1.215.022l-1.249,10.444a.791.791,0,0,1-.783.695Z" transform="translate(-106.746 -308.622)"/><path class="c" d="M225.335,615.641a11.906,11.906,0,0,0-4.5-1.541.774.774,0,0,1-.535-.293.784.784,0,0,1-.163-.6l2.267-16.831a5.821,5.821,0,0,1,3.393-4.548,5.661,5.661,0,0,1,5.5.431q.117.077.229.158a5.814,5.814,0,0,1,2.214,6.058c-1.39,5.687-1.868,15.011-1.949,16.822a.782.782,0,0,1-.511.7,7.9,7.9,0,0,1-2.668.475A6.68,6.68,0,0,1,225.335,615.641Z" transform="translate(-106.864 -302.601)"/><circle class="p" cx="4.304" cy="4.304" r="4.304" transform="translate(116.064 278.336)"/><path class="i" d="M230.859,585.313a1.39,1.39,0,0,1-2.4-.772,1.408,1.408,0,0,1,0-.273,6.322,6.322,0,0,0,.281-1.534.805.805,0,0,0-.147-.377c-.64-.857-2.142.383-2.746-.392-.37-.476.065-1.224-.219-1.756-.375-.7-1.486-.355-2.182-.74-.775-.427-.729-1.617-.219-2.34a3.681,3.681,0,0,1,2.79-1.42,7.486,7.486,0,0,1,3.153.615,6.3,6.3,0,0,1,2.979,2.066,5.043,5.043,0,0,1,.51,4.294A8.094,8.094,0,0,1,230.859,585.313Z" transform="translate(-107.446 -299.268)"/><path class="n" d="M233.113,592.706c-.075-.354-.722-.838-1.647-1.232a10.187,10.187,0,0,0-9.2.789.435.435,0,0,0-.4.342l-3.112,13.765-.4,1.793-.268,1.186-.4,1.787-.216.955a.44.44,0,0,0,.389.535l13.439,1.16.038,0a.438.438,0,0,0,.435-.41l.128-1.947.137-2.082.06-.9.135-2.076.9-13.64v-.012Z" transform="translate(-106.291 -302.476)"/><path class="p" d="M208.342,593.959a1.833,1.833,0,0,1,.042.288l7.528,4.343,1.83-1.053,1.951,2.553-3.914,2.79L207.19,596.1a1.839,1.839,0,1,1,1.152-2.145Z" transform="translate(-103.571 -302.863)"/><path class="c" d="M219.294,598.375a.785.785,0,0,1,.227-.64l3.831-3.832a2.173,2.173,0,0,1,3.359,2.719l-2.728,4.2a.789.789,0,0,1-1.091.232l-3.243-2.1A.785.785,0,0,1,219.294,598.375Z" transform="translate(-106.684 -303.018)"/><path class="b" d="M156.361,386.425l-.134,2.077-13.737-.284.405-1.793Z" transform="translate(-30.433 -82.533)"/><path class="b" d="M155.984,390.213l-.137,2.082L141.634,392l.4-1.788Z" transform="translate(-30.25 -83.342)"/><path class="o" d="M227.364,572.959h0a5.606,5.606,0,0,0-5.6,5.432H220.7a.35.35,0,0,0-.35.35v1.4a.351.351,0,0,0,.35.351h11.916a.35.35,0,0,0,.35-.35v-1.577a5.608,5.608,0,0,0-5.608-5.608Z" transform="translate(-106.912 -298.681)"/><path class="q" d="M265.233,641.87h-1.2c-.008-.146-1.621-3.932-1.621-3.932l-.975-2.359-.645-1.573-.975-2.359-1.117-2.713a.557.557,0,0,0-1.085,0l-1.117,2.713-.975,2.359-.645,1.573-.975,2.359s-1.614,3.787-1.621,3.932h-1.2a1.18,1.18,0,1,0,0,2.359h14.156a1.18,1.18,0,1,0,0-2.359Z" transform="translate(-113.222 -310.544)"/><path class="r" d="M263.806,666.8h-.466c.043-.1-2.027-5.395-2.027-5.395l-1.243-3.028-.834-2.029-1.243-3.028-1.352-3.279a.713.713,0,0,0-1.384,0l-1.352,3.279-1.243,3.028-.842,2.029-1.242,3.028s-2.062,5.294-2.019,5.395h-.482a1.18,1.18,0,0,0,0,2.359h15.728a1.18,1.18,0,1,0,0-2.359Z" transform="translate(-112.581 -315.028)"/><path class="a" d="M186.214,410.668h-5.269l.975-2.359h3.319Z" transform="translate(-38.646 -87.207)"/><path class="a" d="M187.394,415.668h-8.509l.975-2.359h6.559Z" transform="translate(-38.206 -88.274)"/><path class="a" d="M184.7,433.2h-6.574l1.243-3.028h4.089Z" transform="translate(-38.044 -91.875)"/><path class="a" d="M186.21,439.627H175.475l1.243-3.028h8.25Z" transform="translate(-37.478 -93.249)"/><path class="f" d="M488.224,586.7a1.168,1.168,0,0,0-.148-1.785l-.59-3.89-2.424.763,1.328,3.47a1.175,1.175,0,0,0,1.834,1.442Z" transform="translate(-90.693 -300.405)"/><path class="s" d="M485.477,581.491l-1.495-6.982a4,4,0,0,1,1.142-3.739c1.914-1.844,4.373-4.168,5.223-4.77a4.38,4.38,0,0,1,2.74-.809l.021,0,1.286,1.215-2.8,4.612-4.253,2.665.473,6.843Z" transform="translate(-90.028 -297.021)"/><rect class="b" width="7.258" height="0.984" rx="0.492" transform="translate(393.641 274.982)"/><rect class="b" width="7.258" height="0.984" rx="0.492" transform="translate(393.641 285.685)"/><path class="b" d="M487.736,611.441a.246.246,0,0,1-.245-.224l-3.136-36.781a.246.246,0,1,1,.49-.044l2.888,33.983,2.806-33.982a.246.246,0,1,1,.49.042l-3.047,36.781a.246.246,0,0,1-.245.225Z" transform="translate(-90.387 -298.939)"/><circle class="f" cx="3.228" cy="3.228" r="3.228" transform="translate(402.776 260.243)"/><path class="f" d="M408.856,393.693l-1.535-.489,1.157-6.154,2.266.722Z" transform="translate(-14.54 -82.666)"/><path class="i" d="M483.925,620.589l-4.942-1.575.041-.128a1.947,1.947,0,0,1,2.444-1.262l3.089.985Z" transform="translate(-90.296 -308.201)"/><path class="f" d="M422.829,393.768h-1.611l-.767-6.214h2.378Z" transform="translate(-15.104 -82.774)"/><path class="i" d="M493.655,620.974H498.6V619.14h-3.119a1.824,1.824,0,0,0-1.822,1.822Z" transform="translate(-90.87 -308.544)"/><path d="M496.013,609.579l-.544-.081a8.216,8.216,0,0,1-2.01-.375c-.134-.059-.143-.946-.063-5.936.059-3.663.132-8.221-.01-10.668a.43.43,0,0,0-.825-.145c-1.227,2.834-3.286,9.176-4.648,13.372-.474,1.46-.848,2.613-1.085,3.3a.556.556,0,0,1-.658.357c-1.121-.28-1.046-.4-2.643-.812a.552.552,0,0,1-.4-.65c.289-1.362,5.574-23.447,5.979-25.546a.554.554,0,0,1,.652-.44c1.19.24,1.914.494,3.09.74,1.269.265,2.581.54,3.861.8h0a.55.55,0,0,1,.322.2,3.427,3.427,0,0,0,1.283.862c.335.16-.424.146-.132.377,1.182.936-.518,19.939-1.545,24.231A.555.555,0,0,1,496.013,609.579Z" transform="translate(-89.553 -300.6)"/><path class="i" d="M497.994,560.614c-.189-.8.764-2.52.576-3.32-.128-.542-1.4-.173-1.7-.644a1.708,1.708,0,0,0-1.351-.858c-.64-.007-1.269.467-1.874.262a1.207,1.207,0,0,1-.537-1.633,2.936,2.936,0,0,1,1.43-1.254,4.318,4.318,0,0,1,3.174-.533,5.215,5.215,0,0,1,1.68,1.055,5.859,5.859,0,0,1,1.272,1.291,3.469,3.469,0,0,1,.054,3.4,5.116,5.116,0,0,1-2.647,2.278" transform="translate(-90.553 -294.319)"/><path class="t" d="M489.261,581.754c.349-.582.877-3.309,1.53-7.886.444-3.124.831-6.3,1.023-7.921a.78.78,0,0,1,.438-.615q.187-.09.372-.171a8.515,8.515,0,0,1,9.084,1.276l.014.014,0,.02c.007.036.674,3.629-.692,6.056-1.347,2.395-1.363,8.737-1.363,8.8v.081l-.078-.022c-2.1-.6-10.189.449-10.27.459l-.126.016Z" transform="translate(-90.008 -296.85)"/><rect class="b" width="7.258" height="0.984" rx="0.492" transform="translate(405.417 276.581)"/><rect class="b" width="7.258" height="0.984" rx="0.492" transform="translate(405.417 287.284)"/><path class="b" d="M499.937,612a.246.246,0,0,1-.245-.224l-3.136-35.305a.246.246,0,0,1,.49-.043l2.888,32.507,2.806-32.506a.246.246,0,0,1,.49.042l-3.047,35.305a.246.246,0,0,1-.245.225Z" transform="translate(-90.814 -299.373)"/><path class="f" d="M498.272,588.51a1.168,1.168,0,0,1,1.094-1.418l2.609-2.945,1.62,1.957-3,2.192a1.175,1.175,0,0,1-2.323.214Z" transform="translate(-90.995 -301.07)"/><path class="s" d="M500.211,582.811l4.116-5.488-2.122-4.548.154-5.394,1.74-.321.018.009a4.381,4.381,0,0,1,1.861,2.168c.386.966,1.188,4.254,1.793,6.842a4,4,0,0,1-1.073,3.759l-5.049,5.049Z" transform="translate(-90.85 -297.421)"/><path class="b" d="M478.269,615.985l5.631,1.356a.483.483,0,0,0,.56-.261l4.837-12.86a.4.4,0,0,0,0-.313.449.449,0,0,0-.258-.241l-4.233-1.617a.509.509,0,0,0-.415.023.432.432,0,0,0-.226.277h0l-2.988,11.334-.044,0a4.1,4.1,0,0,0-2.5,1.042A1.635,1.635,0,0,0,478.269,615.985Z" transform="translate(-89.785 -304.887)"/><rect class="u" width="0.246" height="5.162" transform="translate(392.936 304.133) rotate(-83.955)"/><rect class="u" width="0.246" height="4.53" transform="translate(392.216 306.139) rotate(-65.776)"/><path class="u" d="M413.248,384.423l-4.87-1.613.1-.224,4.869,1.612Z" transform="translate(-14.441 -81.713)"/><path class="u" d="M413.875,382.814,409,380.464l.1-.225,4.869,2.351Z" transform="translate(-14.463 -81.211)"/><rect class="u" width="0.246" height="4.617" transform="translate(391.568 308.03) rotate(-49.495)"/><rect class="u" width="0.246" height="3.413" transform="translate(390.086 308.938) rotate(-24.393)"/><path class="p" d="M655.186,588.649a1.775,1.775,0,0,1-1.23-2.427l-6.541-14.779,3.742-.942,5.253,14.823a1.784,1.784,0,0,1-1.224,3.325Z" transform="translate(-94.244 -294.836)"/><path class="g" d="M648.287,574.676a.656.656,0,0,1-.361-.411l-.944-3.159a1.825,1.825,0,1,1,3.3-1.557l1.826,2.758a.657.657,0,0,1-.269.958l-3,1.407A.657.657,0,0,1,648.287,574.676Z" transform="translate(-96.228 -297.729)"/><path class="c" d="M662.392,574.287l-4.012,2.841a.3.3,0,0,1-.354,0l-1.084-.814a.3.3,0,0,1-.019-.464l3.087-2.753a.3.3,0,0,1,.3-.058l2.009.719a.3.3,0,0,1,.072.53Z" transform="translate(-93.195 -294.956)"/><path class="e" d="M662.088,574.029a.108.108,0,0,0-.062-.138l-1.81-.647a.108.108,0,0,0-.107.02l-2.785,2.483-.015.017a.1.1,0,0,0,.024.145l.975.732a.106.106,0,0,0,.126,0l3.616-2.56A.106.106,0,0,0,662.088,574.029Z" transform="translate(-93.23 -294.966)"/><path class="p" d="M571.214,394.238h2.025l.964-7.811h-2.989Z" transform="translate(-19.028 -72.554)"/><path class="i" d="M646.774,618.125h3.988a2.541,2.541,0,0,1,2.542,2.541v.083h-6.53Z" transform="translate(-94.782 -297.102)"/><path class="p" d="M564.1,394.238h2.026l.963-7.811H564.1Z" transform="translate(-20.219 -72.554)"/><path class="i" d="M639.663,618.125h3.988a2.541,2.541,0,0,1,2.542,2.542v.083h-6.53Z" transform="translate(-95.979 -297.102)"/><path class="v" d="M639.739,614.543a.889.889,0,0,1-.22-.573c-.483-4.966.831-31.073,3.866-33.3l.019-.018,8.883-1.534h0l.165.165c.013.23,1.628,23.114-2.832,34.793a.744.744,0,0,1-.692.472h-1.774a.742.742,0,0,1-.741-.8l1.436-21.868a.248.248,0,0,0-.489-.072L643.316,614a.748.748,0,0,1-.672.583l-2.329.173-.055,0a.744.744,0,0,1-.522-.214Z" transform="translate(-95.18 -295.246)"/><ellipse class="p" cx="4.057" cy="4.057" rx="4.057" ry="4.057" transform="translate(553.351 262.37)"/><path class="w" d="M641.754,583.531a.962.962,0,0,1-.276-.652l1.657-7.756c-1.321-5.616.438-6.669,2.423-7.733l-.013-.007.829-2.244a.7.7,0,0,1,.981-.454l4.228,2.247a.837.837,0,0,1,.392.494,1.048,1.048,0,0,1-.014.682l-.312.845c.807,1.078,2.056,5.344.735,7l1,5.5a.869.869,0,0,1-.619.926l-10.419,1.337a.62.62,0,0,1-.123.012A.672.672,0,0,1,641.754,583.531Z" transform="translate(-95.007 -294.556)"/><path class="p" d="M657.089,575.029a1.76,1.76,0,0,0-.184.2l-8.172-.565-.877-1.786-2.869.971,1.245,3.314a1.321,1.321,0,0,0,1.337.853l9.293-.7a1.734,1.734,0,1,0,.228-2.284Z" transform="translate(-94.022 -294.949)"/><path d="M648.335,574.5l-3.562,1.186a.744.744,0,0,1-.967-.576l-.649-3.686a2.064,2.064,0,1,1,3.921-1.293l1.685,3.328a.743.743,0,0,1-.429,1.041Z" transform="translate(-95.499 -294.751)"/><ellipse class="i" cx="3.304" cy="3.304" rx="3.304" ry="3.304" transform="translate(551.291 256.616)"/><path class="i" d="M655.6,561.035a1.728,1.728,0,0,0,.956-.08,1.135,1.135,0,0,0,.568-.857c.615-4.09-2.862-3.753-3.273-3.93a4.521,4.521,0,0,1-.727-.531,3.4,3.4,0,0,0-1.9-.418,5.482,5.482,0,0,0-2.309.282,3.457,3.457,0,0,0-1.535,1.415,7.139,7.139,0,0,0-.761,1.971,4.92,4.92,0,0,0-.129,2.416,2.988,2.988,0,0,0,2.712,2.173,2.236,2.236,0,0,1,1.18-2.449,3.409,3.409,0,0,1,2.249-.268,9.893,9.893,0,0,0,1.492.186C654.614,560.965,655.2,560.994,655.6,561.035Z" transform="translate(-94.313 -294.108)"/><path class="a" d="M989.422,616a13.5,13.5,0,0,1,27,0" transform="translate(-85.558 -304.99)"/><path class="b" d="M1006.489,617.535a.365.365,0,0,1-.365-.365v-7.115a.365.365,0,1,1,.73,0v7.115A.365.365,0,0,1,1006.489,617.535Z" transform="translate(-89.126 -306.526)"/><path class="b" d="M1005.3,615.338a.363.363,0,0,1-.237-.088l-4.378-3.758a.365.365,0,0,1,.475-.554l4.378,3.758a.365.365,0,0,1-.238.642Z" transform="translate(-87.937 -306.774)"/><path class="a" d="M1042.31,616a13.5,13.5,0,0,1,27,0" transform="translate(-96.854 -304.99)"/><path class="b" d="M1059.376,617.535a.365.365,0,0,1-.365-.365v-7.114a.365.365,0,1,1,.729,0v7.115A.364.364,0,0,1,1059.376,617.535Z" transform="translate(-100.421 -306.526)"/><path class="b" d="M1058.187,615.338a.363.363,0,0,1-.237-.088l-4.378-3.758a.365.365,0,0,1,.475-.554l4.378,3.758a.365.365,0,0,1-.238.642Z" transform="translate(-99.232 -306.774)"/></svg>