<svg xmlns="http://www.w3.org/2000/svg" xmlns:xlink="http://www.w3.org/1999/xlink" width="821.93" height="612.47" viewBox="0 0 821.93 612.47"><defs><style>.a{fill:#f2f2f2;}.b,.e{fill:#fff;}.c,.e{opacity:0.2;}.d{fill:url(#a);}.f{opacity:0.05;}</style><linearGradient id="a" x1="38824.68" y1="4.008" x2="38824.68" y2="1.002" gradientUnits="objectBoundingBox"><stop offset="0" stop-color="gray" stop-opacity="0.251"/><stop offset="0.54" stop-color="gray" stop-opacity="0.122"/><stop offset="1" stop-color="gray" stop-opacity="0.102"/></linearGradient></defs><g transform="translate(-60.26 -24.91)"><rect class="a" width="200.86" height="21.69" rx="9.96" transform="translate(636.34 24.91)"/><rect class="a" width="200.86" height="21.69" rx="9.96" transform="translate(681.33 43.39)"/><rect class="a" width="200.86" height="21.69" rx="9.96" transform="translate(605 59.46)"/><rect class="a" width="200.86" height="21.69" rx="9.96" transform="translate(292.46 273.18)"/><rect class="a" width="200.86" height="21.69" rx="9.96" transform="translate(337.45 291.66)"/><rect class="a" width="200.86" height="21.69" rx="9.96" transform="translate(261.12 307.72)"/><rect class="a" width="200.86" height="21.69" rx="9.96" transform="translate(91.59 123.73)"/><rect class="a" width="200.86" height="21.69" rx="9.96" transform="translate(136.59 142.21)"/><rect class="a" width="200.86" height="21.69" rx="9.96" transform="translate(60.26 158.28)"/><path class="b" d="M191.62,616.28h1.26a7.1,7.1,0,0,1,7.1,7.1v14H184.52v-14a7.1,7.1,0,0,1,7.1-7.1Z"/><circle class="b" cx="3.87" cy="3.87" r="3.87" transform="translate(188.73 558.3)"/><rect class="b" width="14.76" height="11.24" transform="translate(205.25 596.6)"/><g class="c"><path class="d" d="M611,635.22Z" transform="translate(-158.5 -94.07)"/></g><path class="e" d="M619.73,666.71a.79.79,0,0,1-.23-.62h.17a.79.79,0,0,0,.23.62c.32.37,1,.82.67,1h-.17C620.7,667.53,620.05,667.08,619.73,666.71Z" transform="translate(-158.5 -94.07)"/><path class="e" d="M610.9,666.75a1.149,1.149,0,0,1-.1-.79l-2.08-.34h0L611,666a1.15,1.15,0,0,0,.1.79c.25.51.8,1.17.47,1.31h-.14C611.65,667.86,611.14,667.24,610.9,666.75Z" transform="translate(-158.5 -94.07)"/><path class="e" d="M612.63,648s-2.52-8.74-1.15-10.89h.26c-1.43,2.08,1.12,10.93,1.12,10.93l-1.25,1-.11-.12Z" transform="translate(-158.5 -94.07)"/><path class="e" d="M614.65,645.82v-1.18a1.211,1.211,0,0,0,0-.26,2.7,2.7,0,0,0-1.08-5.1h.15a2.7,2.7,0,0,1,1.24,5.1,1.21,1.21,0,0,1,0,.26v1.18a1.22,1.22,0,0,1-1.22,1.22h-.15a1.22,1.22,0,0,0,1.06-1.22Z" transform="translate(-158.5 -94.07)"/><path class="e" d="M616,655.45a11.52,11.52,0,0,0,0-7.41,2.7,2.7,0,0,0-2.53-2.69h.17a2.7,2.7,0,0,1,2.7,2.7,11.52,11.52,0,0,1,0,7.41c-.07.21-.78.27-1.67.26C615.44,655.7,616,655.63,616,655.45Z" transform="translate(-158.5 -94.07)"/><g class="c"><path class="b" d="M613.34,658.42l-2.39,7.87h-.35l2.44-8Z" transform="translate(-158.5 -94.07)"/><path class="b" d="M616,655.49h.35a11.23,11.23,0,0,1,3.42,10.69v.12h-.35v-.12A11.23,11.23,0,0,0,616,655.49Z" transform="translate(-158.5 -94.07)"/></g><path class="e" d="M622.4,637h.26c.7,6.19-6.27,11.06-6.27,11.06l-.17-.07C617,647.42,623.05,642.79,622.4,637Z" transform="translate(-158.5 -94.07)"/><g class="c"><path class="b" d="M616.2,639a1.669,1.669,0,0,0,.64.16A1.68,1.68,0,0,1,616,639a.61.61,0,0,0,.61-.66l.14-.12a.6.6,0,0,1-.55.78Z" transform="translate(-158.5 -94.07)"/><path class="b" d="M615.66,638.53a3.3,3.3,0,0,1-.66-.24,3,3,0,0,0-1-.21,3,3,0,0,1,1.21.21,3.3,3.3,0,0,0,.66.24h.09A1,1,0,0,1,615.66,638.53Z" transform="translate(-158.5 -94.07)"/><path class="b" d="M617,640.18c.14,0,.36-.25.47-.25a3.691,3.691,0,0,1-1.56-.32,1,1,0,0,0,.35.07,3.69,3.69,0,0,0,1.39.24c-.11,0-.33.21-.47.25a1.16,1.16,0,0,1-.36,0Z" transform="translate(-158.5 -94.07)"/><path class="b" d="M612.9,644.1a2.741,2.741,0,0,0,1.21-.33,2.92,2.92,0,0,0,1.24-1.9,4.467,4.467,0,0,1,.31-1.09,1,1,0,0,1,.85-.56h.17a1,1,0,0,0-.85.56,4.465,4.465,0,0,0-.31,1.09,2.92,2.92,0,0,1-1.24,1.9,2.74,2.74,0,0,1-1.21.33Z" transform="translate(-158.5 -94.07)"/><path class="b" d="M616.41,639.69a1.1,1.1,0,0,0,.89-.57l.2-.06a1.1,1.1,0,0,1-1.09.63Z" transform="translate(-158.5 -94.07)"/></g><path class="e" d="M622.49,636.93s.52-.44,0-1.22a.83.83,0,0,0-.65-.4.85.85,0,0,1,.82.4c.52.78,0,1.22,0,1.22a4.721,4.721,0,0,1-1,.11,5.157,5.157,0,0,0,.83-.11Z" transform="translate(-158.5 -94.07)"/><path class="e" d="M637.22,639.39s-2.52-8.74-1.15-10.89h.26c-1.43,2.08,1.12,10.93,1.12,10.93l-1.25,1-.11-.12Z" transform="translate(-158.5 -94.07)"/><path class="e" d="M639.24,637.17V636a1.211,1.211,0,0,0,0-.26,2.7,2.7,0,0,0-1.08-5.1h.15a2.7,2.7,0,0,1,1.24,5.1,1.211,1.211,0,0,1,0,.26v1.18a1.22,1.22,0,0,1-1.22,1.22h-.15a1.22,1.22,0,0,0,1.06-1.23Z" transform="translate(-158.5 -94.07)"/><path class="e" d="M640.74,641.84a2.47,2.47,0,0,0,.21-2.44,2.7,2.7,0,0,0-2.7-2.7h-.17a2.7,2.7,0,0,1,2.53,2.69,2.47,2.47,0,0,1-.21,2.44c-.84,1,.83,3.06.21,5-.06.18-.6.25-1.31.26.88,0,1.59-.05,1.66-.26C641.57,644.9,639.9,642.84,640.74,641.84Z" transform="translate(-158.5 -94.07)"/><path class="e" d="M648.71,631.1l.25.08c-1.15,6.12-9.24,8.74-9.24,8.74l-.14-.11C640.53,639.47,647.64,636.81,648.71,631.1Z" transform="translate(-158.5 -94.07)"/><g class="c"><path class="b" d="M637.58,649.42l-1.57,8h.35l1.52-7.78q-.144-.117-.3-.22Z" transform="translate(-158.5 -94.07)"/><path class="b" d="M639.83,646.63h-.35a15.46,15.46,0,0,1,2.2,10.69v.12H642v-.12a15.46,15.46,0,0,0-2.17-10.69Z" transform="translate(-158.5 -94.07)"/></g><path class="e" d="M648.82,631s.63-.26.36-1.17a.83.83,0,0,0-.5-.57.85.85,0,0,1,.67.62c.27.9-.36,1.17-.36,1.17a4.722,4.722,0,0,1-1-.19A5.167,5.167,0,0,0,648.82,631Z" transform="translate(-158.5 -94.07)"/><path class="e" d="M641,646.51h-.52l2.34,6.57a5.279,5.279,0,0,1-3.44,1.2,5.5,5.5,0,0,0,4-1.2Z" transform="translate(-158.5 -94.07)"/><path class="e" d="M636.41,657.4h-.35s1.73.35,1.38,1h.35C638.14,657.74,636.41,657.4,636.41,657.4Z" transform="translate(-158.5 -94.07)"/><path class="e" d="M641.94,657.4h-.35s1.73.35,1.38,1h.35C643.67,657.74,641.94,657.4,641.94,657.4Z" transform="translate(-158.5 -94.07)"/><path class="f" d="M917.77,489.37h-24.1a29.82,29.82,0,0,0-29.73,29.73h0a16.552,16.552,0,0,0,.08,2,29.82,29.82,0,0,1,29.65-27.72h24.1a29.82,29.82,0,0,1,29.65,27.72c0-.66.08-1.33.08-2h0a29.82,29.82,0,0,0-29.73-29.73Z" transform="translate(-158.5 -94.07)"/><g class="c"><path class="b" d="M801.9,328.46c0-64.51,58-117,115.38-118.46h-2.49c-58.21,0-117.88,53.05-117.88,118.5S856.57,447,914.78,447h2.49C859.87,445.44,801.9,393,801.9,328.46Z" transform="translate(-158.5 -94.07)"/></g><path class="e" d="M871.75,218.59s-89.39,102.18,0,219.74l29.52-.1s-81.49-97.12-3.74-227L883,214.54Z" transform="translate(-158.5 -94.07)"/><path class="e" d="M949.5,217s89.39,103.74,0,221.3l-29.52-.1s81.49-98,3.74-227.85l14.55,2.91Z" transform="translate(-158.5 -94.07)"/></g></svg>