<svg xmlns="http://www.w3.org/2000/svg" xmlns:xlink="http://www.w3.org/1999/xlink" width="829.939" height="456.51" viewBox="0 0 829.939 456.51"><defs><style>.a{opacity:0.2;}.b,.c{fill:#4c7b61;}.c,.e,.g{opacity:0.1;}.d,.e{fill:#f5a84c;}.f{fill:#535461;}.h{fill:#e0e0e0;}.i{fill:#ffc400;}.j{fill:#7b653d;}.k,.n{fill:#fff;}.l{fill:#2b2a29;}.m{fill:#6393ff;}.m,.p,.q,.t,.u,.v,.z{opacity:0.7;}.n{opacity:0.15;}.o{fill:none;stroke:#535461;stroke-miterlimit:10;stroke-width:2px;}.p{fill:#f2db91;}.q{fill:#ede6cf;}.r{fill:#c9e0ab;}.s{fill:#037597;}.t{fill:#81c7e6;}.u{fill:#a1b4b0;}.v{fill:#63bdff;}.w{fill:#4db6ac;}.x{fill:#00a74d;}.y{fill:#5d291b;}.aa{fill:url(#a);}.ab{fill:#fdb797;}.ac{fill:#4d8af0;}.ad{opacity:0.05;}.ae{fill:#f55f44;}.af{fill:#333;}.ag{fill:#fccc63;}.ah{opacity:0.3;}.ai{fill:#030b44;}.aj{fill:#2f2e41;}.ak{fill:#3f3d56;}.al{fill:#6c63ff;}.am{fill:#ffb8b8;}.an{fill:#575a89;}</style><linearGradient id="a" x1="0.5" y1="1" x2="0.5" gradientUnits="objectBoundingBox"><stop offset="0" stop-color="gray" stop-opacity="0.251"/><stop offset="0.535" stop-color="gray" stop-opacity="0.122"/><stop offset="1" stop-color="gray" stop-opacity="0.102"/></linearGradient></defs><g transform="translate(0 16)"><g class="a" transform="translate(260.437 115.9)"><path class="b" d="M586.45,481.84c0-20.761-6.4-39.626-16.83-53.663a50.351,50.351,0,1,0-90.736,0c-10.431,14.037-16.83,32.9-16.83,53.663s6.4,39.626,16.83,53.663a50.351,50.351,0,1,0,90.736,0C580.051,521.466,586.45,502.6,586.45,481.84Z" transform="translate(-462.055 -355.987)"/><path class="c" d="M586.45,481.84c0-20.761-6.4-39.626-16.83-53.663a50.351,50.351,0,1,0-90.736,0c-10.431,14.037-16.83,32.9-16.83,53.663s6.4,39.626,16.83,53.663a50.351,50.351,0,1,0,90.736,0C580.051,521.466,586.45,502.6,586.45,481.84Z" transform="translate(-462.055 -355.987)"/><path class="b" d="M589.094,481.84c0-20.761-6.4-39.626-16.83-53.663a50.351,50.351,0,1,0-90.736,0c-10.431,14.037-16.83,32.9-16.83,53.663s6.4,39.626,16.83,53.663a50.351,50.351,0,1,0,90.736,0C582.7,521.466,589.094,502.6,589.094,481.84Z" transform="translate(-461.737 -355.987)"/><path class="b" d="M297.208,405.6H285.361l5.924-195.48Z" transform="translate(-226.125 -88.711)"/><path class="b" d="M291.97,255.478l38.5-16.275-38.5,20.732Z" transform="translate(-225.33 -85.214)"/><path class="b" d="M290.06,271.039,278.751,257.71l11.085,20.733Z" transform="translate(-226.919 -82.988)"/></g><g class="a" transform="translate(394.77 227.495)"><path class="d" d="M662.369,536.947c0-13.419-4.136-25.612-10.878-34.684a32.543,32.543,0,1,0-58.646,0c-6.742,9.072-10.878,21.265-10.878,34.684s4.136,25.612,10.878,34.684a32.543,32.543,0,1,0,58.646,0C658.233,562.558,662.369,550.365,662.369,536.947Z" transform="translate(-581.969 -455.605)"/><path class="e" d="M662.369,536.947c0-13.419-4.136-25.612-10.878-34.684a32.543,32.543,0,1,0-58.646,0c-6.742,9.072-10.878,21.265-10.878,34.684s4.136,25.612,10.878,34.684a32.543,32.543,0,1,0,58.646,0C658.233,562.558,662.369,550.365,662.369,536.947Z" transform="translate(-581.969 -455.605)"/><path class="d" d="M664.078,536.947c0-13.419-4.136-25.612-10.878-34.684a32.543,32.543,0,1,0-58.646,0c-6.742,9.072-10.878,21.265-10.878,34.684s4.136,25.612,10.878,34.684a32.543,32.543,0,1,0,58.646,0C659.942,562.558,664.078,550.365,664.078,536.947Z" transform="translate(-581.763 -455.605)"/><path class="d" d="M394.231,397.751h-7.658L390.4,271.407Z" transform="translate(-348.287 -192.937)"/><path class="d" d="M390.845,300.724,415.731,290.2l-24.886,13.4Z" transform="translate(-347.774 -190.677)"/><path class="d" d="M389.611,310.781l-7.31-8.615,7.164,13.4Z" transform="translate(-348.801 -189.238)"/></g><rect class="f" width="1.372" height="20.579" transform="translate(352.24 384.772)"/><rect class="f" width="3.43" height="24.009" transform="translate(350.868 408.094)"/><rect class="f" width="3.43" height="24.009" transform="translate(423.58 408.094)"/><rect class="g" width="3.43" height="24.009" transform="translate(350.868 408.094)"/><rect class="g" width="3.43" height="24.009" transform="translate(423.58 408.094)"/><rect class="f" width="1.372" height="20.579" transform="translate(426.324 405.35) rotate(180)"/><rect class="g" width="1.372" height="20.579" transform="translate(352.24 384.772)"/><rect class="g" width="1.372" height="20.579" transform="translate(426.324 405.35) rotate(180)"/><rect class="f" width="86.431" height="4.116" transform="translate(346.067 383.4)"/><rect class="f" width="86.431" height="4.116" transform="translate(346.067 390.259)"/><rect class="f" width="86.431" height="4.116" transform="translate(346.067 397.119)"/><rect class="f" width="86.431" height="7.546" transform="translate(346.067 404.665)"/><rect class="h" width="30.868" height="59.678" transform="translate(240.772 136.111)"/><path class="i" d="M300.7,210.7v203.73H23.575V210.7L46.9,196.361l21.951-13.5,93.633-57.566Z" transform="translate(2.835 16.99)"/><path class="g" d="M240.17,406.392V192.119l-4.116,2.531V406.392Z" transform="translate(28.384 25.025)"/><rect class="j" width="61.736" height="94.662" transform="translate(134.105 336.412)"/><circle class="f" cx="2.744" cy="2.744" r="2.744" transform="translate(183.837 380.999)"/><rect class="g" width="30.868" height="3.43" transform="translate(240.772 136.797)"/><rect class="h" width="41.158" height="6.86" transform="translate(235.284 132.682)"/><rect class="g" width="277.128" height="5.488" transform="translate(26.409 275.704)"/><rect class="k" width="277.128" height="5.488" transform="translate(26.409 275.018)"/><rect class="g" width="7.546" height="63.108" transform="translate(261.008 132.682)"/><rect class="g" width="2.058" height="63.108" transform="translate(255.52 133.024)"/><path class="g" d="M267.189,194.838V406.8h-21.95V188.733Z" transform="translate(29.488 24.618)"/><path class="g" d="M60.834,176.682V408.248H38.883V190.182Z" transform="translate(4.675 23.169)"/><path class="g" d="M33.814,406.392V192.119L29.7,194.65V406.392Z" transform="translate(3.571 25.025)"/><path class="g" d="M165.316,105.088,0,225.131l10.975,17.835L165.316,138.014l154.34,104.952,10.976-17.835Z" transform="translate(0 14.56)"/><path class="l" d="M165.316,103.864,0,223.907l10.975,17.834L165.316,136.79l154.34,104.951,10.976-17.834Z" transform="translate(0 14.413)"/><rect class="m" width="57.621" height="57.621" transform="translate(49.389 313.089)"/><rect class="g" width="61.736" height="6.86" transform="translate(46.988 368.995)"/><rect class="f" width="61.736" height="6.86" transform="translate(46.988 367.623)"/><path class="n" d="M68.142,278.072,44.394,310.84v-16.7l13.349-16.072Z" transform="translate(5.338 35.36)"/><path class="n" d="M88.543,278.072,44.394,324.457v-8.183l32.946-38.2Z" transform="translate(5.338 35.36)"/><line class="o" x2="57.621" transform="translate(49.389 341.899)"/><line class="o" x2="57.621" transform="translate(49.732 313.432)"/><line class="o" y2="57.621" transform="translate(106.667 313.432)"/><line class="o" y2="57.621" transform="translate(49.732 312.746)"/><rect class="p" width="57.621" height="57.621" transform="translate(280.557 370.71) rotate(180)"/><rect class="g" width="61.736" height="6.86" transform="translate(282.958 375.854) rotate(180)"/><rect class="f" width="61.736" height="6.86" transform="translate(282.958 374.482) rotate(180)"/><path class="n" d="M228.938,278.072l23.748,32.768v-16.7l-13.349-16.072Z" transform="translate(27.528 35.36)"/><path class="n" d="M210.728,278.072l44.148,46.385v-8.183l-32.946-38.2Z" transform="translate(25.338 35.36)"/><line class="o" x1="57.621" transform="translate(222.937 341.899)"/><line class="o" x1="57.621" transform="translate(222.594 313.432)"/><line class="o" y2="57.621" transform="translate(223.28 313.432)"/><line class="o" y2="57.621" transform="translate(280.215 312.746)"/><rect class="q" width="57.621" height="57.621" transform="translate(193.441 253.41) rotate(180)"/><rect class="g" width="61.736" height="6.86" transform="translate(195.841 258.555) rotate(180)"/><rect class="f" width="61.736" height="6.86" transform="translate(195.841 257.183) rotate(180)"/><path class="n" d="M151.172,173.363l23.748,32.768v-16.7l-13.349-16.072Z" transform="translate(18.177 22.769)"/><path class="n" d="M132.962,173.363l44.148,46.385v-8.183l-32.946-38.2Z" transform="translate(15.988 22.769)"/><line class="o" x1="57.621" transform="translate(135.82 224.6)"/><line class="o" x1="57.621" transform="translate(135.477 196.133)"/><line class="o" y2="57.621" transform="translate(164.63 195.79)"/><line class="o" y2="57.621" transform="translate(136.163 196.133)"/><line class="o" y2="57.621" transform="translate(193.098 195.447)"/><rect class="g" width="17.835" height="157.085" transform="translate(748.039 274.332)"/><rect class="h" width="30.868" height="59.678" transform="translate(701.051 136.111)"/><path class="r" d="M711.577,210.7v203.73H434.449V210.7l23.322-14.337,21.951-13.5,93.633-57.566Z" transform="translate(52.239 16.99)"/><rect class="s" width="61.736" height="94.662" transform="translate(594.384 336.412)"/><circle class="f" cx="2.744" cy="2.744" r="2.744" transform="translate(644.116 380.999)"/><rect class="g" width="30.868" height="3.43" transform="translate(701.051 136.797)"/><rect class="h" width="41.158" height="6.86" transform="translate(695.563 132.682)"/><rect class="g" width="277.128" height="5.488" transform="translate(486.688 275.704)"/><rect class="k" width="277.128" height="5.488" transform="translate(486.688 275.018)"/><rect class="g" width="7.546" height="63.108" transform="translate(721.287 132.682)"/><rect class="g" width="2.058" height="63.108" transform="translate(715.799 133.024)"/><path class="g" d="M678.064,194.838V406.8H656.113V188.733Z" transform="translate(78.893 24.618)"/><path class="g" d="M471.708,176.682V408.248H449.757V190.182Z" transform="translate(54.08 23.169)"/><path class="g" d="M444.688,406.392V192.119l-4.116,2.531V406.392Z" transform="translate(52.975 25.025)"/><path class="g" d="M576.19,105.088,410.874,225.131l10.976,17.835L576.19,138.014,730.532,242.966l10.975-17.835Z" transform="translate(49.405 14.56)"/><path class="s" d="M576.19,103.864,410.874,223.907l10.976,17.834L576.19,136.79,730.532,241.741l10.975-17.834Z" transform="translate(49.405 14.413)"/><rect class="t" width="57.621" height="57.621" transform="translate(509.668 313.089)"/><rect class="g" width="61.736" height="6.86" transform="translate(507.267 368.995)"/><rect class="f" width="61.736" height="6.86" transform="translate(507.267 367.623)"/><path class="n" d="M479.016,278.072,455.268,310.84v-16.7l13.349-16.072Z" transform="translate(54.743 35.36)"/><path class="n" d="M499.417,278.072l-44.149,46.385v-8.183l32.947-38.2Z" transform="translate(54.743 35.36)"/><line class="o" x2="57.621" transform="translate(509.668 341.899)"/><line class="o" x2="57.621" transform="translate(510.011 313.432)"/><line class="o" y2="57.621" transform="translate(566.946 313.432)"/><line class="o" y2="57.621" transform="translate(510.011 312.746)"/><rect class="u" width="57.621" height="57.621" transform="translate(740.836 370.71) rotate(180)"/><rect class="g" width="61.736" height="6.86" transform="translate(743.237 375.854) rotate(180)"/><rect class="f" width="61.736" height="6.86" transform="translate(743.237 374.482) rotate(180)"/><path class="n" d="M639.813,278.072l23.748,32.768v-16.7l-13.349-16.072Z" transform="translate(76.933 35.36)"/><path class="n" d="M621.6,278.072l44.149,46.385v-8.183l-32.948-38.2Z" transform="translate(74.743 35.36)"/><line class="o" x1="57.621" transform="translate(683.216 341.899)"/><line class="o" x1="57.621" transform="translate(682.873 313.432)"/><line class="o" y2="57.621" transform="translate(683.559 313.432)"/><line class="o" y2="57.621" transform="translate(740.493 312.746)"/><rect class="v" width="57.621" height="57.621" transform="translate(653.719 253.41) rotate(180)"/><rect class="g" width="61.736" height="6.86" transform="translate(656.12 258.555) rotate(180)"/><rect class="f" width="61.736" height="6.86" transform="translate(656.12 257.183) rotate(180)"/><path class="n" d="M562.047,173.363l23.748,32.768v-16.7l-13.349-16.072Z" transform="translate(67.582 22.769)"/><path class="n" d="M543.836,173.363l44.149,46.385v-8.183l-32.947-38.2Z" transform="translate(65.392 22.769)"/><line class="o" x1="57.621" transform="translate(596.099 224.6)"/><line class="o" x1="57.621" transform="translate(595.756 196.133)"/><line class="o" y2="57.621" transform="translate(624.909 195.79)"/><line class="o" y2="57.621" transform="translate(596.442 196.133)"/><line class="o" y2="57.621" transform="translate(653.377 195.447)"/><path class="w" d="M525.7,564.9a41.78,41.78,0,0,0-7.8-24.857,23.323,23.323,0,1,0-42.029,0,43.527,43.527,0,0,0,0,49.714,23.323,23.323,0,1,0,42.029,0A41.78,41.78,0,0,0,525.7,564.9Z" transform="translate(-200.894 -221.976)"/><path class="g" d="M525.7,564.9a41.78,41.78,0,0,0-7.8-24.857,23.323,23.323,0,1,0-42.029,0,43.527,43.527,0,0,0,0,49.714,23.323,23.323,0,1,0,42.029,0A41.78,41.78,0,0,0,525.7,564.9Z" transform="translate(-200.894 -221.976)"/><path class="x" d="M526.92,564.9a41.78,41.78,0,0,0-7.8-24.857,23.323,23.323,0,1,0-42.029,0,43.527,43.527,0,0,0,0,49.714,23.323,23.323,0,1,0,42.029,0A41.78,41.78,0,0,0,526.92,564.9Z" transform="translate(-200.746 -221.976)"/><path class="y" d="M268.484,393.112H263l2.745-90.547Z" transform="translate(31.623 38.305)"/><path class="y" d="M266.058,323.575l17.835-7.539-17.835,9.6Z" transform="translate(31.991 39.925)"/><path class="y" d="M265.173,330.783l-5.238-6.174,5.134,9.6Z" transform="translate(31.255 40.956)"/><path class="w" d="M695.311,564.9a41.779,41.779,0,0,0-7.8-24.857,23.323,23.323,0,1,0-42.029,0,43.526,43.526,0,0,0,0,49.714,23.323,23.323,0,1,0,42.029,0A41.78,41.78,0,0,0,695.311,564.9Z" transform="translate(-180.499 -221.976)"/><path class="g" d="M695.311,564.9a41.779,41.779,0,0,0-7.8-24.857,23.323,23.323,0,1,0-42.029,0,43.526,43.526,0,0,0,0,49.714,23.323,23.323,0,1,0,42.029,0A41.78,41.78,0,0,0,695.311,564.9Z" transform="translate(-180.499 -221.976)"/><path class="x" d="M696.536,564.9a41.78,41.78,0,0,0-7.8-24.857,23.323,23.323,0,1,0-42.029,0,43.527,43.527,0,0,0,0,49.714,23.323,23.323,0,1,0,42.029,0,41.78,41.78,0,0,0,7.8-24.857Z" transform="translate(-180.351 -221.976)"/><path class="y" d="M438.1,393.112h-5.488l2.743-90.547Z" transform="translate(52.018 38.305)"/><path class="y" d="M435.674,323.575l17.834-7.539-17.834,9.6Z" transform="translate(52.386 39.925)"/><path class="y" d="M434.788,330.783l-5.238-6.174,5.135,9.6Z" transform="translate(51.65 40.956)"/><g class="z" transform="translate(356.55 358.705)"><path class="aa" d="M569.357,615.948l-.565-.106,1.114-4.107c1.755-13.163-4.875-14.489-7.361-14.533a8.175,8.175,0,0,0-.873-.265v-1.552a8.242,8.242,0,0,0,6.155-6.655l.021,0c.4,0,.716-.6.716-1.343a1.865,1.865,0,0,0-.312-1.108q.042-.425.043-.862a8.565,8.565,0,0,0-2.648-6.2,5.523,5.523,0,0,0-.608-1.635c-.61-1.075-1.625-2.2-1.212-3.361l-2.681.275-.025-1.766c-.837.15-1.187,1.12-1.683,1.81-1.194,1.661-3.589,1.891-5.174,3.185-.538.439-1.751,1.777-1.521,2.654a8.594,8.594,0,0,0-1.592,5.9,1.864,1.864,0,0,0-.312,1.107c0,.742.321,1.343.716,1.343l.014,0a8.259,8.259,0,0,0,6.162,6.655v1.552a8.182,8.182,0,0,0-.874.265c-2.486.045-9.116,1.371-7.361,14.533l1.114,4.107-.265.049a3.055,3.055,0,0,0-2.443,3.564L552.3,643a.925.925,0,0,0,1.079.74l.775-.145v.458a2.571,2.571,0,0,0-1.432,2.3v.291h5.192v-.291a2.569,2.569,0,0,0-1.253-2.206v-1.024l.708-.132a.925.925,0,0,0,.74-1.079l-4.129-22.121h11.451L561.3,641.912a.925.925,0,0,0,.74,1.079l.708.132v1.024a2.57,2.57,0,0,0-1.253,2.206v.291h5.192v-.291a2.571,2.571,0,0,0-1.432-2.3v-.458l.775.145A.925.925,0,0,0,567.1,643l4.45-23.841A2.749,2.749,0,0,0,569.357,615.948Z" transform="translate(-547.851 -572.731)"/></g><rect class="ab" width="2.411" height="3.273" transform="translate(363.062 426.568)"/><rect class="ab" width="2.411" height="3.273" transform="translate(371.329 426.568)"/><rect class="ac" width="15.846" height="5.684" transform="translate(360.478 399.698)"/><g class="ad" transform="translate(360.478 399.698)"><rect width="15.846" height="5.684"/></g><path class="g" d="M551.357,610.339a60.515,60.515,0,0,0,7.923,1.378,60.521,60.521,0,0,0,7.923-1.378v-.861H551.357Z" transform="translate(-190.879 -209.607)"/><path class="ae" d="M567.2,611.96a60.5,60.5,0,0,1-7.923,1.378,60.51,60.51,0,0,1-7.923-1.378v-9.473a7.923,7.923,0,0,1,7.923-7.923h0a7.923,7.923,0,0,1,7.923,7.923Z" transform="translate(-190.879 -211.4)"/><path class="ab" d="M327.167,336.782h3.789v4.341a1.86,1.86,0,0,1-1.86,1.86h-.07a1.86,1.86,0,0,1-1.86-1.86v-4.341Z" transform="translate(39.339 42.419)"/><path class="ac" d="M556.983,637.228l-3.038.567a1.3,1.3,0,0,1-1.513-1.037l-3.907-20.929a4.282,4.282,0,0,1,3.424-5l.1-.019a1.3,1.3,0,0,1,1.512,1.037l4.455,23.864a1.3,1.3,0,0,1-1.037,1.512Z" transform="translate(-191.229 -209.449)"/><path class="ac" d="M561.011,637.246l2.826.528a1.4,1.4,0,0,0,1.638-1.123l3.907-20.929a4.175,4.175,0,0,0-3.338-4.87l-.1-.019a1.4,1.4,0,0,0-1.638,1.123l-4.415,23.652a1.4,1.4,0,0,0,1.123,1.638Z" transform="translate(-189.857 -209.447)"/><path class="g" d="M556.739,593.88a7.927,7.927,0,0,0,3.789,0v-2.7h-3.789Z" transform="translate(-190.232 -211.807)"/><circle class="af" cx="8.268" cy="8.268" r="8.268" transform="translate(360.133 364.045)"/><circle class="ab" cx="7.923" cy="7.923" r="7.923" transform="translate(360.478 366.284)"/><path class="af" d="M553.92,578.785c1.524-1.244,3.829-1.466,4.978-3.064.477-.664.815-1.6,1.62-1.741l.024,1.7,2.579-.265c-.4,1.121.579,2.2,1.166,3.234a5.318,5.318,0,0,1,.688,2.5c-.9.538-2.006-.049-3-.362a11.071,11.071,0,0,0-3.014-.364,6.26,6.26,0,0,0-1.556.085,7.855,7.855,0,0,0-1.284.473c-.686.287-2.852,1.371-3.49.672C551.905,580.862,553.332,579.266,553.92,578.785Z" transform="translate(-190.751 -213.875)"/><path class="g" d="M554.277,583.516a3.635,3.635,0,0,0,1.4.422,12.343,12.343,0,0,0,6.013-.676,2.939,2.939,0,0,0,1.9,1.6,8.7,8.7,0,0,0,2.54.284.939.939,0,0,0,.546-.1c.381-.257.2-.847-.025-1.249l-1.1-2a5.931,5.931,0,0,0-1.167-1.642,4.844,4.844,0,0,0-2.3-.989,12.99,12.99,0,0,0-5.913.2C554.1,579.917,551.448,581.8,554.277,583.516Z" transform="translate(-190.677 -213.282)"/><path class="af" d="M554.277,583.362a3.633,3.633,0,0,0,1.4.422,12.343,12.343,0,0,0,6.013-.676,2.938,2.938,0,0,0,1.9,1.6,8.7,8.7,0,0,0,2.54.284.94.94,0,0,0,.546-.1c.381-.257.2-.847-.025-1.249l-1.1-2A5.936,5.936,0,0,0,564.376,580a4.846,4.846,0,0,0-2.3-.989,12.991,12.991,0,0,0-5.913.2C554.1,579.763,551.448,581.65,554.277,583.362Z" transform="translate(-190.677 -213.301)"/><ellipse class="ab" cx="0.689" cy="1.292" rx="0.689" ry="1.292" transform="translate(375.549 372.915)"/><ellipse class="ab" cx="0.689" cy="1.292" rx="0.689" ry="1.292" transform="translate(359.875 372.915)"/><path class="ae" d="M557.651,595.039s-10.022-1.561-7.955,13.941l1.205,4.443,3.445-.137s-2.239-5.167-.861-8.612S557.651,595.039,557.651,595.039Z" transform="translate(-191.113 -211.348)"/><path class="ae" d="M560.093,595.039s10.022-1.561,7.955,13.941l-1.205,4.443-3.445-.137s2.239-5.167.861-8.612S560.093,595.039,560.093,595.039Z" transform="translate(-189.829 -211.348)"/><circle class="ab" cx="1.895" cy="1.895" r="1.895" transform="translate(359.789 400.732)"/><circle class="ab" cx="1.895" cy="1.895" r="1.895" transform="translate(373.568 400.732)"/><path class="af" d="M325.313,380.756h.092a2.451,2.451,0,0,1,2.451,2.451v.3h-4.995v-.3A2.451,2.451,0,0,1,325.313,380.756Z" transform="translate(38.822 47.707)"/><path class="af" d="M332.847,380.756h.092a2.451,2.451,0,0,1,2.451,2.451v.3H330.4v-.3A2.451,2.451,0,0,1,332.847,380.756Z" transform="translate(39.728 47.707)"/><path class="g" d="M552.916,602.405s-.689,3.617.517,5.167" transform="translate(-190.716 -210.458)"/><path class="g" d="M564.021,602.405s.689,3.617-.517,5.167" transform="translate(-189.419 -210.458)"/><circle class="ae" cx="3.43" cy="3.43" r="3.43" transform="translate(497.664 344.986)"/><path class="w" d="M304.228,624.509c.024-.315.048-.63.048-.951a12.33,12.33,0,0,0-18.611-10.628,12.332,12.332,0,0,0-20.823-1.481,12.342,12.342,0,0,0-11.871,20.036,12.327,12.327,0,0,0,16.663,15.633,12.275,12.275,0,0,0,13.376-2.029,12.252,12.252,0,0,0,12.347,2.445,12.342,12.342,0,0,0,8.869-23.026Z" transform="translate(-227.105 -209.976)"/><path class="g" d="M304.228,624.509c.024-.315.048-.63.048-.951a12.33,12.33,0,0,0-18.611-10.628,12.332,12.332,0,0,0-20.823-1.481,12.342,12.342,0,0,0-11.871,20.036,12.327,12.327,0,0,0,16.663,15.633,12.275,12.275,0,0,0,13.376-2.029,12.252,12.252,0,0,0,12.347,2.445,12.342,12.342,0,0,0,8.869-23.026Z" transform="translate(-227.105 -209.976)"/><path class="x" d="M305.452,624.509c.024-.315.048-.63.048-.951a12.33,12.33,0,0,0-18.61-10.628,12.332,12.332,0,0,0-20.823-1.481A12.342,12.342,0,0,0,254.2,631.486a12.327,12.327,0,0,0,16.663,15.633,12.275,12.275,0,0,0,13.376-2.029,12.252,12.252,0,0,0,12.347,2.445,12.342,12.342,0,0,0,8.869-23.026Z" transform="translate(-226.958 -209.976)"/><rect class="af" width="771.769" height="7.897" transform="translate(10.632 432.613)"/><circle class="ag" cx="40.598" cy="40.598" r="40.598" transform="translate(427.315 -16)"/><g class="ah" transform="translate(646.128 43.357)"><rect class="h" width="105.886" height="20.661" rx="9.221" transform="translate(25.826)"/><rect class="h" width="105.886" height="20.661" rx="9.221" transform="translate(0 20.661)"/><rect class="h" width="105.886" height="20.661" rx="9.221" transform="translate(25.826 41.321)"/></g><g class="ah" transform="translate(157.725 33.067)"><rect class="h" width="105.886" height="20.661" rx="9.221" transform="translate(25.826 0)"/><rect class="h" width="105.886" height="20.661" rx="9.221" transform="translate(0 20.661)"/><rect class="h" width="105.886" height="20.661" rx="9.221" transform="translate(25.826 41.321)"/></g><g class="ah" transform="translate(95.226 96.99)"><path class="ai" d="M314.576,348.618h22.6S328.659,363.683,314.576,348.618Z" transform="translate(-314.576 -337.964)"/><path class="ai" d="M315.794,356.171l14.814-17.064S336.4,355.413,315.794,356.171Z" transform="translate(-314.43 -339.107)"/></g><g class="ah" transform="translate(343.095 15.361)"><path class="ai" d="M535.84,275.75h22.6S549.923,290.815,535.84,275.75Z" transform="translate(-535.84 -265.096)"/><path class="ai" d="M537.057,283.3l14.814-17.064S557.666,282.546,537.057,283.3Z" transform="translate(-535.694 -266.24)"/></g><g class="ah" transform="translate(805.698 87.984)"><path class="ai" d="M948.789,341.27H973.03S963.9,357.43,948.789,341.27Z" transform="translate(-948.789 -329.841)"/><path class="ai" d="M950.1,349.373l15.891-18.305S972.2,348.559,950.1,349.373Z" transform="translate(-948.632 -331.067)"/></g><path class="aj" d="M444.137,616.5l-1.654,2.7s-.08.685.471.27a12.813,12.813,0,0,0,1.621-2.827Z" transform="translate(-203.971 -208.763)"/><path class="aj" d="M456.638,594.327l4.163-6.944a3.355,3.355,0,0,1,2.584-1.643,1.967,1.967,0,0,1,2.178,1.391,4.629,4.629,0,0,1-.994,4.647s-.865.235-.819-.574l.99-1.728s.823-2.346-1.479-2.517-5.591,7.751-5.591,7.751Z" transform="translate(-202.269 -212.464)"/><path class="ak" d="M460.739,594.554l-2.687,2.321c0,.995-.884,3.006-2.186,5.442q-.149.281-.306.569c-.774,1.417-1.672,2.955-2.613,4.509q-.155.257-.313.515c-1.053,1.724-2.146,3.452-3.168,5.034-.106.165-.212.328-.316.492-1.179,1.816-2.241,3.414-3.009,4.555-.113.169-.221.326-.319.475-.572.848-.914,1.344-.914,1.344a1.2,1.2,0,0,1-.68.183.54.54,0,0,1-.422-.285,2.233,2.233,0,0,1-.165-1.146,17.582,17.582,0,0,1,1.552-4.508c.1-.206.2-.415.3-.626.816-1.671,1.829-3.469,2.909-5.252l.314-.515c1.05-1.709,2.149-3.393,3.183-4.924.108-.158.215-.314.32-.47,1.017-1.492,1.956-2.822,2.706-3.862l.323-.447c.857-1.182,1.394-1.892,1.394-1.892l.611-3.615,1.17.705.9.543Z" transform="translate(-203.834 -211.655)"/><path class="al" d="M445.321,611.174l.652,4.563c-.113.169-.221.326-.319.475l-.629-4.412C445.12,611.594,445.219,611.385,445.321,611.174Z" transform="translate(-203.665 -209.403)"/><path class="al" d="M448.2,606.027l.754,5.283c-.106.165-.212.328-.316.492l-.752-5.26Z" transform="translate(-203.321 -210.022)"/><path class="al" d="M451.328,601.212l.732,5.129q-.155.257-.313.515l-.739-5.173C451.116,601.524,451.223,601.367,451.328,601.212Z" transform="translate(-202.946 -210.601)"/><path class="al" d="M454.032,597.365l.622,4.36q-.149.281-.306.569l-.639-4.481Z" transform="translate(-202.621 -211.064)"/><circle class="aj" cx="4.94" cy="4.94" r="4.94" transform="translate(268.581 341.23)"/><path class="am" d="M470.973,564.585s.425,4.888,0,6.164,5.526-.638,5.526-.638-2.338-5.526-1.913-6.057S470.973,564.585,470.973,564.585Z" transform="translate(-200.548 -215.087)"/><path class="am" d="M470.864,596.433l-.319,15.621a4.846,4.846,0,0,0,.744,2.976c.956,1.594,5.207,13.6,5.207,13.6L480,626.719l-.319-4.782s-.638-6.589-2.763-9.033L480,597.92Z" transform="translate(-200.598 -211.176)"/><path class="g" d="M470.864,596.433l-.319,15.621a4.846,4.846,0,0,0,.744,2.976c.956,1.594,5.207,13.6,5.207,13.6L480,626.719l-.319-4.782s-.638-6.589-2.763-9.033L480,597.92Z" transform="translate(-200.598 -211.176)"/><path class="aj" d="M480.171,621.476s-8.82,1.807-7.332,4.676,4.251,8.82,4.251,8.82.744,3.719-.638,4.463-4.251,5.207-1.488,4.995,5.42-3.294,5.42-3.294l2.338-2.976.425.744L487.4,635.4s1.594-3.4-4.251-5.1Z" transform="translate(-200.341 -208.164)"/><path class="g" d="M480.171,621.476s-8.82,1.807-7.332,4.676,4.251,8.82,4.251,8.82.744,3.719-.638,4.463-4.251,5.207-1.488,4.995,5.42-3.294,5.42-3.294l2.338-2.976.425.744L487.4,635.4s1.594-3.4-4.251-5.1Z" transform="translate(-200.341 -208.164)"/><path class="am" d="M469.251,596.812l-.319,15.621a4.845,4.845,0,0,0,.744,2.976c.956,1.594,5.207,13.6,5.207,13.6l3.507-1.913-.319-4.782s-.638-6.589-2.763-9.033L478.39,598.3Z" transform="translate(-200.792 -211.13)"/><path class="aj" d="M478.558,621.855s-8.82,1.807-7.332,4.676,4.251,8.82,4.251,8.82.744,3.719-.638,4.463-4.251,5.207-1.488,4.995,5.42-3.294,5.42-3.294l2.338-2.976.425.744,4.251-3.507s1.594-3.4-4.251-5.1Z" transform="translate(-200.535 -208.119)"/><circle class="am" cx="4.038" cy="4.038" r="4.038" transform="translate(267.874 344.078)"/><path class="an" d="M471.871,569.035s4.463-2.444,6.482-2.444,4.251-.956,4.463.213,2.338,4.251.213,4.038-3.826.106-4.888,0S471.871,569.035,471.871,569.035Z" transform="translate(-200.437 -214.808)"/><path class="al" d="M469.71,593.587s-1.913,4.782-.638,4.995a70.54,70.54,0,0,0,8.82.531C478.212,598.9,479.274,593.375,469.71,593.587Z" transform="translate(-200.826 -211.518)"/><path class="an" d="M483.542,598.8c-2.232,2.125-.956,3.082-1.807,4.676s-7.12.319-9.67-3.082-3.188-2.125-5.951-2.55-5.207-2.444-2.869-3.613a6.768,6.768,0,0,0,2.773-3.039,9.388,9.388,0,0,0,.957-3.287,8.024,8.024,0,0,0-.117-2.388c-.425-2.065.3-6.142,1.466-9.773a20.531,20.531,0,0,1,2.916-6.164c.062-.077.124-.148.187-.216,2.55-2.763,8.289-.744,8.289-.744s4.251,3.507,2.763,7.97a15.292,15.292,0,0,0,.425,11.052C484.073,590.3,485.773,596.674,483.542,598.8Z" transform="translate(-201.587 -214.606)"/><path class="am" d="M467.092,587.705l-1.169.744s-4.782-1.382-4.676,0,4.995,1.807,4.995,1.807l1.7-1.275Z" transform="translate(-201.715 -212.225)"/><path class="g" d="M472.213,569.887s-3.08-1.242-3.027,3.63a54.25,54.25,0,0,0,1.54,10.716l-4.348,6.29,1.373,2.105,8.82-7.226v-9.989S476.145,570.312,472.213,569.887Z" transform="translate(-201.098 -214.385)"/><path class="g" d="M475.078,574.923v9.989l-8.13,6.642-.531-1.169c.5-.988-.049-1.492.064-2.66l2.752-3.982a59.95,59.95,0,0,1-1.4-8.179,20.533,20.533,0,0,1,2.916-6.164C474.655,569.844,475.078,574.923,475.078,574.923Z" transform="translate(-201.093 -214.426)"/><path class="an" d="M471.834,569.412s-3.08-1.242-3.028,3.63a54.254,54.254,0,0,0,1.54,10.716L466,590.048l1.373,2.105,8.82-7.226v-9.989S475.766,569.837,471.834,569.412Z" transform="translate(-201.143 -214.442)"/><circle class="aj" cx="4.94" cy="4.94" r="4.94" transform="translate(273.932 334.727)"/><path class="aj" d="M483.132,559.882a4.94,4.94,0,0,1-7.628-2.594,4.94,4.94,0,1,0,9.636-2.026,4.938,4.938,0,0,1-2.008,4.619Z" transform="translate(-200 -216.126)"/><circle class="aj" cx="3.622" cy="3.622" r="3.622" transform="translate(271.215 343.371)"/><ellipse class="aj" cx="3.211" cy="2.511" rx="3.211" ry="2.511" transform="translate(268.581 343.124)"/><ellipse class="am" cx="0.609" cy="1.078" rx="0.609" ry="1.078" transform="translate(270.326 347.129)"/></g></svg>