<svg xmlns="http://www.w3.org/2000/svg" width="355.972" height="378.45" viewBox="0 0 355.972 378.45"><defs><style>.a{fill:#00a74d;}.b{fill:#3f3d56;}.c{fill:#3d5648;}.d{fill:#dbdbdb;}.e{fill:#3d564a;}</style></defs><g transform="translate(-109.794 -5779.783)"><path class="a" d="M585.726,377.322c0,69.087-41.071,93.21-91.735,93.21s-91.735-24.123-91.735-93.21,91.735-156.977,91.735-156.977S585.726,308.235,585.726,377.322Z" transform="translate(-208.471 5559.438)"/><path class="b" d="M380.529,373.916l.939-57.82,39.1-71.531-38.953,62.462.423-26,26.947-51.752-26.835,44.872h0l.76-46.759,28.856-41.2-28.737,33.849L383.5,134.3l-2.982,113.5.245-4.682-29.339-44.907L380.3,252.106l-2.734,52.222-.082-1.386-33.821-47.258,33.719,52.154-.342,6.531-.061.1L377,315l-6.935,132.491h9.266l1.112-68.434,33.636-52.027Z" transform="translate(-98.352 5645.486)"/><path class="c" d="M724.558,479.673c0,69.087-41.071,93.21-91.735,93.21s-91.735-24.123-91.735-93.21S632.823,322.7,632.823,322.7,724.558,410.586,724.558,479.673Z" transform="translate(-258.792 5522.34)"/><path class="d" d="M519.361,476.266l.94-57.82,39.1-71.531-38.952,62.461.422-26,26.948-51.752L520.982,376.5h0l.76-46.759,28.856-41.2-28.737,33.849.475-85.74-2.983,113.5.245-4.682-29.339-44.907,28.868,53.895-2.734,52.221-.082-1.386-33.821-47.257,33.719,52.154-.342,6.531-.062.1.028.536L508.9,549.844h9.266l1.112-68.434,33.636-52.026Z" transform="translate(-148.672 5608.389)"/><path class="e" d="M453.987,479.673c0,69.087-41.071,93.21-91.735,93.21s-91.735-24.123-91.735-93.21S362.252,322.7,362.252,322.7,453.987,410.586,453.987,479.673Z" transform="translate(-160.723 5522.34)"/><path class="d" d="M248.79,476.266l.94-57.82,39.1-71.531-38.953,62.461.422-26,26.948-51.752L250.411,376.5h0l.759-46.759,28.856-41.2L251.29,322.387l.475-85.74-2.982,113.5.245-4.682-29.338-44.907,28.867,53.895-2.734,52.221-.081-1.386L211.92,358.034l33.719,52.154-.342,6.531-.061.1.028.536-6.936,132.49h9.266l1.112-68.434,33.637-52.026Z" transform="translate(-50.602 5608.389)"/></g></svg>