<svg xmlns="http://www.w3.org/2000/svg" width="273.376" height="273.376" viewBox="0 0 273.376 273.376"><defs><style>.a,.c,.g{fill:none;}.b{fill:#fff;}.c{stroke:#000;stroke-width:5px;}.d,.e,.f{stroke:none;}.e{fill:#fff;}.f{fill:#000;}</style></defs><g transform="translate(-1699.313 -5600.312)"><g class="a" transform="matrix(0.927, -0.375, 0.375, 0.927, 1699.313, 5678.979)"><path class="d" d="M105,0A105,105,0,1,1,0,105,105,105,0,0,1,105,0Z"/><path class="e" d="M 105 24 C 60.33645629882812 24 24 60.33645629882812 24 105 C 24 149.6635437011719 60.33645629882812 186 105 186 C 149.6635437011719 186 186 149.6635437011719 186 105 C 186 60.33645629882812 149.6635437011719 24 105 24 M 105 0 C 162.9898986816406 0 210 47.01010131835938 210 105 C 210 162.9898986816406 162.9898986816406 210 105 210 C 47.01010131835938 210 0 162.9898986816406 0 105 C 0 47.01010131835938 47.01010131835938 0 105 0 Z"/></g><g class="b" transform="matrix(0.927, -0.375, 0.375, 0.927, 1734.938, 5671.057)"><path class="d" d="M 21 36 C 12.72897624969482 36 6 29.27102279663086 6 21 C 6 12.72897624969482 12.72897624969482 6 21 6 C 29.27102279663086 6 36 12.72897624969482 36 21 C 36 29.27102279663086 29.27102279663086 36 21 36 Z"/><path class="f" d="M 21 12 C 16.03738212585449 12 12 16.03738212585449 12 21 C 12 25.96261787414551 16.03738212585449 30 21 30 C 25.96261787414551 30 30 25.96261787414551 30 21 C 30 16.03738212585449 25.96261787414551 12 21 12 M 21 0 C 32.59798049926758 0 42 9.402019500732422 42 21 C 42 32.59798049926758 32.59798049926758 42 21 42 C 9.402019500732422 42 0 32.59798049926758 0 21 C 0 9.402019500732422 9.402019500732422 0 21 0 Z"/></g><g class="c" transform="translate(1752 5653)"><circle class="d" cx="92" cy="92" r="92"/><circle class="g" cx="92" cy="92" r="89.5"/></g></g></svg>