<svg xmlns="http://www.w3.org/2000/svg" width="174.323" height="174.323" viewBox="0 0 174.323 174.323"><defs><style>.a,.c,.g{fill:none;}.b{fill:#f5a84c;}.c{stroke:#fff;stroke-width:4.5px;}.d,.e,.f{stroke:none;}.e{fill:#f5a84c;}.f{fill:#fff;}</style></defs><g transform="translate(-1699.313 -5600.312)"><g class="a" transform="matrix(0.927, -0.375, 0.375, 0.927, 1699.313, 5650.476)"><path class="d" d="M66.955,0A66.955,66.955,0,1,1,0,66.955,66.955,66.955,0,0,1,66.955,0Z"/><path class="e" d="M 66.95510101318359 18.99999237060547 C 40.51256561279297 18.99999237060547 18.99999237060547 40.51256561279297 18.99999237060547 66.95510101318359 C 18.99999237060547 93.39763641357422 40.51256561279297 114.9102096557617 66.95510101318359 114.9102096557617 C 93.39763641357422 114.9102096557617 114.9102096557617 93.39763641357422 114.9102096557617 66.95510101318359 C 114.9102096557617 40.51256561279297 93.39763641357422 18.99999237060547 66.95510101318359 18.99999237060547 M 66.95510101318359 0 C 103.9333877563477 0 133.9102020263672 29.97681427001953 133.9102020263672 66.95510101318359 C 133.9102020263672 103.9333877563477 103.9333877563477 133.9102020263672 66.95510101318359 133.9102020263672 C 29.97681427001953 133.9102020263672 0 103.9333877563477 0 66.95510101318359 C 0 29.97681427001953 29.97681427001953 0 66.95510101318359 0 Z"/></g><g class="b" transform="matrix(0.927, -0.375, 0.375, 0.927, 1722.029, 5645.423)"><path class="d" d="M 13.39101982116699 22.28203964233398 C 8.488490104675293 22.28203964233398 4.5 18.29355049133301 4.5 13.39101982116699 C 4.5 8.488490104675293 8.488490104675293 4.5 13.39101982116699 4.5 C 18.29355049133301 4.5 22.28203964233398 8.488490104675293 22.28203964233398 13.39101982116699 C 22.28203964233398 18.29355049133301 18.29355049133301 22.28203964233398 13.39101982116699 22.28203964233398 Z"/><path class="f" d="M 13.39101982116699 8.999994277954102 C 10.96979522705078 8.999994277954102 8.999994277954102 10.96979522705078 8.999994277954102 13.39101982116699 C 8.999994277954102 15.8122444152832 10.96979522705078 17.78204345703125 13.39101982116699 17.78204345703125 C 15.8122444152832 17.78204345703125 17.78204345703125 15.8122444152832 17.78204345703125 13.39101982116699 C 17.78204345703125 10.96979522705078 15.8122444152832 8.999994277954102 13.39101982116699 8.999994277954102 M 13.39101982116699 -5.7220458984375e-06 C 20.78667068481445 -5.7220458984375e-06 26.78204536437988 5.995357513427734 26.78204536437988 13.39101982116699 C 26.78204536437988 20.78667068481445 20.78667068481445 26.78204536437988 13.39101982116699 26.78204536437988 C 5.995357513427734 26.78204536437988 -5.7220458984375e-06 20.78667068481445 -5.7220458984375e-06 13.39101982116699 C -5.7220458984375e-06 5.995357513427734 5.995357513427734 -5.7220458984375e-06 13.39101982116699 -5.7220458984375e-06 Z"/></g><g class="c" transform="translate(1735.635 5635.635)"><circle class="d" cx="56.5" cy="56.5" r="56.5"/><circle class="g" cx="56.5" cy="56.5" r="54.25"/></g></g></svg>