<svg xmlns="http://www.w3.org/2000/svg" width="186.84" height="161.818" viewBox="0 0 186.84 161.818"><defs><style>.a{mix-blend-mode:luminosity;isolation:isolate;}.b{opacity:0.17;}.ab,.ad,.c,.d,.e,.f{fill:none;stroke-linecap:round;stroke-linejoin:round;}.ab,.ad,.c,.d,.e{stroke:#1b3242;}.c{stroke-width:8px;}.d,.f{stroke-width:10px;}.e{stroke-width:11px;}.f{stroke:#013711;}.g,.k,.m{fill:#0b7c3e;}.h,.l{fill:#049448;}.h,.n{opacity:0.5;}.i,.o,.q{fill:#70bf43;}.i{opacity:0.46;}.j,.p{fill:#013711;}.k{opacity:0.2;}.m{opacity:0.29;}.p,.r{opacity:0.41;}.q{opacity:0.65;}.s,.t,.u{fill:#0bb68f;}.t{opacity:0.43;}.u{opacity:0.7;}.v,.w{fill:#f9941c;}.w{opacity:0.37;}.x{fill:#fff;}.aa,.y,.z{fill:#fcca86;}.z{opacity:0.6;}.aa{opacity:0.77;}.ab{stroke-width:6px;}.ac{fill:#1b3242;}.ad{stroke-width:4px;}</style></defs><g class="a" transform="translate(4 5)"><g transform="translate(0 0)"><g class="b" transform="translate(0 54.94)"><path class="c" d="M215.591,386.3v10.96H193.672" transform="translate(-186.2 -386.297)"/><path class="c" d="M297.429,397.257h-21.92V386.3" transform="translate(-246.118 -386.297)"/><rect class="c" width="21.92" height="10.96" transform="translate(18.432 10.96)"/><path class="c" d="M281.737,479.095h-6.228v-10.96h21.92" transform="translate(-246.118 -446.215)"/><path class="c" d="M193.672,468.135h21.919v10.96H197.817" transform="translate(-186.2 -446.215)"/><path class="c" d="M165.775,427.216h18.432v10.96h-10.96" transform="translate(-165.775 -416.256)"/><path class="c" d="M332.246,438.176H316.428v-10.96h7.6" transform="translate(-276.077 -416.256)"/></g><g class="b" transform="translate(122.932 6.113)"><rect class="d" width="8.035" height="6.16" transform="translate(6.785 139.545)"/><rect class="d" width="8.035" height="6.16" transform="translate(37.141 139.545)"/><rect class="d" width="51.961" height="139.545"/><rect class="d" width="42.319" height="126.957" transform="translate(4.821 4.821)"/><rect class="d" width="7.5" height="29.864" transform="translate(39.64 15.896)"/><rect class="d" width="29.864" height="7.109" transform="translate(9.592 82.082)"/><rect class="d" width="29.864" height="7.109" transform="translate(13.526 74.973)"/><rect class="d" width="29.864" height="5.926" transform="translate(9.776 69.103)"/><line class="d" x2="7.5" transform="translate(39.64 23.302)"/><rect class="d" width="6.375" height="27.681" transform="translate(33.266 18.079)"/><line class="d" x2="6.375" transform="translate(33.266 24.944)"/><rect class="d" width="26.051" height="5.999" transform="matrix(0.5, -0.866, 0.866, 0.5, 14.73, 42.417)"/><line class="d" x2="5.196" y2="3" transform="translate(24.524 25.44)"/><line class="d" y2="7.053" transform="translate(21.414 75.029)"/><line class="d" y2="5.87" transform="translate(16.481 69.103)"/><line class="d" y2="7.109" transform="translate(17.262 82.082)"/><rect class="d" width="42.319" height="3.973" transform="translate(4.821 47.051)"/><rect class="d" width="42.319" height="4.018" transform="translate(4.821 89.191)"/><rect class="d" width="42.319" height="40.578" transform="translate(4.821 91.2)"/><line class="e" y2="17.688" transform="translate(37.6 102.645)"/></g><line class="f" x2="1.964" transform="translate(175.876 151.818)"/><line class="f" x2="12.053" transform="translate(154.27 151.818)"/><line class="f" x2="113.418" transform="translate(35.562 151.818)"/><line class="f" x2="15.25" transform="translate(14.141 151.818)"/><path class="g" d="M451.8,261H427.3a11.785,11.785,0,0,0-11.785,11.785v10.156h6.964V272.785a4.821,4.821,0,0,1,4.821-4.821h24.5a4.821,4.821,0,0,1,4.821,4.821v10.156h6.964V272.785A11.785,11.785,0,0,0,451.8,261Z" transform="translate(-348.623 -239.62)"/><rect class="h" width="7.143" height="3.482" transform="translate(66.931 34.147)"/><rect class="h" width="7.143" height="3.482" transform="translate(107.822 34.147)"/><path class="i" d="M451.8,261H427.3a11.785,11.785,0,0,0-11.785,11.785v2.5A11.785,11.785,0,0,1,427.3,263.5h24.5a11.785,11.785,0,0,1,11.785,11.785v-2.5A11.785,11.785,0,0,0,451.8,261Z" transform="translate(-348.623 -239.62)"/><path class="j" d="M459.926,280.619h-6.964a1.339,1.339,0,0,1-1.339-1.339V269.124a3.486,3.486,0,0,0-3.482-3.482h-24.5a3.486,3.486,0,0,0-3.482,3.482V279.28a1.339,1.339,0,0,1-1.339,1.339h-6.964a1.339,1.339,0,0,1-1.339-1.339V269.124A13.139,13.139,0,0,1,423.637,256h24.5a13.139,13.139,0,0,1,13.124,13.124V279.28A1.339,1.339,0,0,1,459.926,280.619Zm-5.625-2.678h4.285v-8.817a10.458,10.458,0,0,0-10.446-10.446h-24.5a10.457,10.457,0,0,0-10.446,10.446v8.817h4.285v-8.817a6.167,6.167,0,0,1,6.16-6.16h24.5a6.167,6.167,0,0,1,6.16,6.16Z" transform="translate(-344.962 -235.959)"/><path class="g" d="M322.559,569.441h-6.81a10.178,10.178,0,0,1-10.171-9.485c-.959-14.683.582-26.143,3.793-35.019a5.492,5.492,0,0,1,10.312,0C323.556,535.64,325,550.1,322.559,569.441Z" transform="translate(-267.927 -430.228)"/><path class="k" d="M326.005,524.943a5.511,5.511,0,0,0-8.663-2.363l.766,31.063a13.276,13.276,0,0,1-4.908,10.648,10.208,10.208,0,0,0,8.872,5.155h6.81C331.321,550.107,329.878,535.647,326.005,524.943Z" transform="translate(-273.714 -430.234)"/><path class="j" d="M318.9,567.112h-6.81a11.537,11.537,0,0,1-11.507-10.737c-.913-13.976.39-25.941,3.87-35.562a6.83,6.83,0,0,1,12.83,0c4.25,11.746,5.24,26.929,2.946,45.127A1.339,1.339,0,0,1,318.9,567.112Zm-8.032-48.1a4.053,4.053,0,0,0-3.9,2.717c-3.354,9.272-4.6,20.87-3.716,34.476a8.852,8.852,0,0,0,8.834,8.233h5.625c2.055-17.252,1.063-31.615-2.95-42.709a4.053,4.053,0,0,0-3.9-2.718Z" transform="translate(-264.272 -426.56)"/><path class="g" d="M637.488,562.493h6.81a10.178,10.178,0,0,0,10.171-9.485c.959-14.683-.582-26.141-3.793-35.018a5.492,5.492,0,0,0-10.312,0C636.491,528.693,635.048,543.153,637.488,562.493Z" transform="translate(-510.266 -425.141)"/><path class="k" d="M646.261,546.408l.759-30.782A5.51,5.51,0,0,0,638.364,518c-3.872,10.7-5.315,25.164-2.876,44.5h6.81a10.209,10.209,0,0,0,8.983-5.351A13.281,13.281,0,0,1,646.261,546.408Z" transform="translate(-508.801 -425.147)"/><path class="j" d="M640.653,560.165h-6.81a1.339,1.339,0,0,1-1.329-1.172c-2.3-18.2-1.3-33.381,2.946-45.127a6.83,6.83,0,0,1,12.83,0c3.48,9.621,4.783,21.585,3.87,35.561A11.537,11.537,0,0,1,640.653,560.165Zm-5.625-2.678h5.625a8.852,8.852,0,0,0,8.835-8.233c.888-13.606-.362-25.2-3.716-34.475a4.151,4.151,0,0,0-7.793,0c-4.014,11.094-5.005,25.457-2.95,42.708Z" transform="translate(-506.622 -421.474)"/><path class="l" d="M416.632,510.233h-58.5a12.44,12.44,0,0,1-12.377-11.305,346.972,346.972,0,0,1,0-64.37,12.44,12.44,0,0,1,12.377-11.305h58.5a12.44,12.44,0,0,1,12.377,11.305,347.019,347.019,0,0,1,0,64.37A12.44,12.44,0,0,1,416.632,510.233Z" transform="translate(-296.458 -358.414)"/><path class="m" d="M429.025,608.988a12.44,12.44,0,0,1-12.377,11.305h-58.5a12.44,12.44,0,0,1-12.377-11.305q-1.409-15.129-1.485-30.321-.091,17.042,1.485,34.049a12.44,12.44,0,0,0,12.377,11.305h58.5a12.44,12.44,0,0,0,12.377-11.305q1.583-16.987,1.485-34.049Q430.428,593.845,429.025,608.988Z" transform="translate(-296.474 -472.203)"/><g class="n" transform="translate(81.086 119.435)"><path class="l" d="M478.355,640.014c-5.519,0-9.842-2.838-9.842-6.46s4.323-6.46,9.842-6.46,9.841,2.838,9.841,6.46S483.873,640.014,478.355,640.014Zm0-10.778c-4.606,0-7.7,2.232-7.7,4.318s3.093,4.318,7.7,4.318,7.7-2.232,7.7-4.318S482.96,629.236,478.355,629.236Z" transform="translate(-468.513 -627.093)"/></g><path class="h" d="M353.542,470c11.236.58,22.641.874,33.9.874s22.662-.295,33.9-.874a15.662,15.662,0,0,0,9.2-3.643q-.141-14.414-1.476-28.793a12.44,12.44,0,0,0-12.377-11.305h-58.5a12.44,12.44,0,0,0-12.377,11.305q-1.339,14.368-1.476,28.794A15.661,15.661,0,0,0,353.542,470Z" transform="translate(-296.512 -360.613)"/><path class="j" d="M424.835,515.764h-1.073a.536.536,0,1,1,0-1.071h1.073a.536.536,0,1,1,0,1.071Zm-3.219,0h-1.071a.536.536,0,1,1,0-1.071h1.071a.536.536,0,1,1,0,1.071Zm-3.218,0h-1.071a.536.536,0,1,1,0-1.071H418.4a.536.536,0,1,1,0,1.071Zm-3.218,0h-1.071a.536.536,0,1,1,0-1.071h1.071a.536.536,0,1,1,0,1.071Zm-3.218,0h-1.071a.536.536,0,1,1,0-1.071h1.071a.536.536,0,0,1,0,1.071Zm-3.218,0h-1.073a.536.536,0,1,1,0-1.071h1.073a.536.536,0,1,1,0,1.071Zm-3.218,0h-1.073a.536.536,0,1,1,0-1.071h1.073a.536.536,0,1,1,0,1.071Zm-3.218,0h-1.071a.536.536,0,1,1,0-1.071h1.071a.536.536,0,1,1,0,1.071Zm-3.218,0h-1.071a.536.536,0,1,1,0-1.071h1.071a.536.536,0,1,1,0,1.071Zm-3.218,0H394.8a.536.536,0,1,1,0-1.071h1.071a.536.536,0,1,1,0,1.071Zm-3.218,0h-1.071a.536.536,0,0,1,0-1.071h1.071a.536.536,0,1,1,0,1.071Zm-3.218,0h-1.073a.536.536,0,0,1,0-1.071h1.073a.536.536,0,1,1,0,1.071Zm-3.218,0h-1.073a.536.536,0,1,1,0-1.071h1.073a.536.536,0,1,1,0,1.071Zm-3.218,0h-1.073a.536.536,0,1,1,0-1.071H383a.536.536,0,0,1,0,1.071Zm-3.219,0h-1.071a.536.536,0,1,1,0-1.071h1.071a.536.536,0,1,1,0,1.071Zm-3.218,0h-1.071a.536.536,0,1,1,0-1.071h1.071a.536.536,0,1,1,0,1.071Zm-3.218,0h-1.071a.536.536,0,1,1,0-1.071h1.071a.536.536,0,0,1,0,1.071Zm-3.218,0h-1.071a.536.536,0,1,1,0-1.071h1.071a.536.536,0,1,1,0,1.071Zm-3.218,0h-.032a9.5,9.5,0,0,1-1.135-.068.536.536,0,1,1,.129-1.064,8.419,8.419,0,0,0,1.006.06h.032a.536.536,0,1,1,0,1.071Zm60.065-.146a.536.536,0,0,1-.1-1.062,8.081,8.081,0,0,0,.975-.243.536.536,0,0,1,.323,1.022,9.371,9.371,0,0,1-1.1.274A.572.572,0,0,1,426.971,515.618Zm-63.244-.435a.532.532,0,0,1-.193-.036,9.118,9.118,0,0,1-1.035-.476.536.536,0,0,1,.5-.95l.011.006a8.119,8.119,0,0,0,.914.419.536.536,0,0,1-.192,1.036Zm66.229-.716a.536.536,0,0,1-.283-.991,8.15,8.15,0,0,0,.82-.582.536.536,0,1,1,.673.834,9.216,9.216,0,0,1-.928.658A.531.531,0,0,1,429.956,514.467Zm-68.95-.969a.534.534,0,0,1-.361-.14,9.282,9.282,0,0,1-.791-.818.536.536,0,0,1,.815-.7,8.159,8.159,0,0,0,.7.723.536.536,0,0,1-.362.931Zm71.311-1.189a.536.536,0,0,1-.429-.857,8.248,8.248,0,0,0,.554-.84.536.536,0,1,1,.929.534,9.332,9.332,0,0,1-.624.95.536.536,0,0,1-.43.214Zm-73.232-1.366a.536.536,0,0,1-.481-.3,9.354,9.354,0,0,1-.441-1.049.536.536,0,0,1,1.011-.354,8.191,8.191,0,0,0,.39.928.535.535,0,0,1-.48.773Zm74.653-1.5a.537.537,0,0,1-.536-.538.53.53,0,0,1,.02-.143,8.268,8.268,0,0,0,.214-.984.536.536,0,0,1,1.059.165h0a9.464,9.464,0,0,1-.241,1.11.536.536,0,0,1-.515.389Zm-75.531-1.588a.524.524,0,0,1-.529-.471c0-.005,0-.034,0-.04-.031-.336-.063-.685-.1-1.034a.536.536,0,0,1,1.067-.1h0q.047.522.1,1.043a.545.545,0,0,1-.482.595l-.052,0Zm75.972-1.593a.363.363,0,0,1-.048,0,.536.536,0,0,1-.486-.581q.047-.533.092-1.067a.536.536,0,1,1,1.068.091q-.046.536-.093,1.071A.536.536,0,0,1,434.178,506.26Zm-76.251-1.6a.536.536,0,0,1-.533-.491q-.045-.536-.088-1.071a.536.536,0,0,1,1.068-.086q.043.534.088,1.067a.536.536,0,0,1-.489.579h-.045Zm76.52-1.607a.372.372,0,0,1-.043,0,.536.536,0,0,1-.492-.576h0q.042-.534.083-1.067a.536.536,0,1,1,1.07.059c0,.007,0,.014,0,.021q-.04.536-.082,1.071a.536.536,0,0,1-.534.493Zm-76.773-1.6a.536.536,0,0,1-.534-.5q-.04-.535-.078-1.071a.536.536,0,0,1,1.069-.076h0q.038.536.077,1.068a.536.536,0,0,1-.495.574Zm77.011-1.607h-.037a.536.536,0,0,1-.5-.571h0q.037-.535.072-1.069a.536.536,0,0,1,1.069.07q-.036.535-.073,1.071a.536.536,0,0,1-.534.5h0Zm-77.234-1.6a.536.536,0,0,1-.534-.5l-.068-1.071a.536.536,0,0,1,1.069-.066l.068,1.069a.536.536,0,0,1-.5.569h-.035Zm77.442-1.609h-.032a.536.536,0,0,1-.5-.567h0l.062-1.07a.536.536,0,1,1,1.07.061l-.063,1.071a.536.536,0,0,1-.534.5Zm-77.635-1.6a.536.536,0,0,1-.536-.506q-.03-.536-.058-1.071a.536.536,0,0,1,1.069-.073v.016q.029.536.058,1.07a.536.536,0,0,1-.5.565Zm77.813-1.61h-.027a.536.536,0,0,1-.509-.561h0q.027-.536.052-1.071a.542.542,0,0,1,.561-.509.536.536,0,0,1,.509.561q-.025.535-.054,1.073a.536.536,0,0,1-.532.509Zm-77.975-1.6a.536.536,0,0,1-.536-.511q-.025-.535-.048-1.074a.536.536,0,0,1,1.071-.046q.023.536.048,1.07a.536.536,0,0,1-.511.56h-.025Zm78.123-1.611H435.2a.536.536,0,0,1-.513-.557h0q.022-.535.042-1.071a.536.536,0,0,1,1.071.041q-.021.536-.043,1.074a.536.536,0,0,1-.535.514Zm-78.255-1.6a.536.536,0,0,1-.536-.516q-.02-.536-.038-1.074a.536.536,0,0,1,1.071-.036q.018.536.038,1.071a.536.536,0,0,1-.516.555h-.02Zm78.373-1.611h-.017a.536.536,0,0,1-.518-.553h0q.017-.536.032-1.071a.536.536,0,0,1,1.071.03q-.015.538-.032,1.075a.536.536,0,0,1-.536.519ZM356.86,485.38a.536.536,0,0,1-.536-.521l-.027-1.073a.536.536,0,0,1,.522-.549.53.53,0,0,1,.548.51s0,.008,0,.012l.027,1.071a.536.536,0,0,1-.521.55Zm78.563-1.612h-.012a.536.536,0,0,1-.524-.547h0l.022-1.071a.536.536,0,0,1,.536-.525h.011a.536.536,0,0,1,.525.546h0l-.022,1.074a.536.536,0,0,1-.536.524Zm-78.635-1.607a.536.536,0,0,1-.536-.526l-.017-1.074a.536.536,0,0,1,.528-.544h.008a.536.536,0,0,1,.536.528l.017,1.071a.536.536,0,0,1-.526.545Zm78.693-1.612h-.007a.536.536,0,0,1-.529-.542h0l.012-1.071a.536.536,0,0,1,.536-.53h.005a.536.536,0,0,1,.53.541h0l-.012,1.074a.536.536,0,0,1-.535.53Zm-78.735-1.607a.536.536,0,0,1-.536-.531q0-.538-.008-1.075a.536.536,0,0,1,.533-.538h0a.536.536,0,0,1,.536.533q0,.536.008,1.071a.536.536,0,0,1-.531.54Zm78.762-1.612h0a.535.535,0,0,1-.534-.538h0q0-.536,0-1.071a.536.536,0,0,1,.536-.536h0a.536.536,0,0,1,.536.536q0,.537,0,1.074a.536.536,0,0,1-.534.538h0Zm-78.775-1.607h0a.536.536,0,0,1-.536-.536q0-.537,0-1.074a.536.536,0,0,1,.536-.534h0a.536.536,0,0,1,.534.538h0q0,.535,0,1.071a.536.536,0,0,1-.534.538h0ZM435.5,474.11a.535.535,0,0,1-.536-.533q0-.535-.008-1.071a.536.536,0,0,1,.531-.54h0a.536.536,0,0,1,.536.531q0,.537.007,1.075a.536.536,0,0,1-.533.538h0ZM356.751,472.5h-.006a.536.536,0,0,1-.53-.541h0q.005-.535.013-1.074a.536.536,0,0,1,.536-.529h.007a.536.536,0,0,1,.529.543h0q-.007.535-.013,1.071a.536.536,0,0,1-.536.535Zm78.721-1.612a.536.536,0,0,1-.536-.527l-.018-1.071a.536.536,0,1,1,1.071-.019l.018,1.074a.536.536,0,0,1-.528.544h-.008ZM356.8,469.285h-.011a.536.536,0,0,1-.525-.546h0l.023-1.074a.536.536,0,1,1,1.071.024l-.022,1.071a.536.536,0,0,1-.535.53Zm78.611-1.612a.536.536,0,0,1-.536-.522l-.027-1.071a.536.536,0,0,1,1.071-.029l.027,1.073a.536.536,0,0,1-.522.549Zm-78.534-1.605h-.015a.536.536,0,0,1-.52-.55h0q.016-.538.033-1.075a.53.53,0,0,1,.542-.518h.011a.536.536,0,0,1,.518.553h0q-.017.535-.033,1.071a.536.536,0,0,1-.535.524Zm78.442-1.607a.536.536,0,0,1-.536-.518q-.018-.535-.038-1.071a.536.536,0,0,1,.516-.555h0a.529.529,0,0,1,.554.5s0,.01,0,.015q.02.535.038,1.073a.536.536,0,0,1-.517.553h-.018Zm-78.333-1.6h-.021a.536.536,0,0,1-.515-.555h0q.021-.536.043-1.074a.536.536,0,1,1,1.071.044q-.022.536-.042,1.071a.536.536,0,0,1-.538.514Zm78.21-1.612a.536.536,0,0,1-.536-.513q-.023-.536-.048-1.07a.536.536,0,1,1,1.071-.049q.025.535.048,1.073a.536.536,0,0,1-.512.558Zm-78.072-1.6H357.1a.536.536,0,0,1-.509-.561q.027-.536.054-1.073a.536.536,0,0,1,1.07.054q-.027.535-.052,1.071a.536.536,0,0,1-.536.509Zm77.919-1.61a.536.536,0,0,1-.536-.507q-.028-.536-.058-1.07a.537.537,0,1,1,1.071-.06q.03.535.058,1.073a.536.536,0,0,1-.507.562h-.029Zm-77.751-1.6h-.031a.536.536,0,0,1-.5-.565h0l.063-1.071a.536.536,0,1,1,1.071.039c0,.008,0,.016,0,.024l-.062,1.07a.536.536,0,0,1-.535.5h0Zm77.568-1.609a.535.535,0,0,1-.534-.5l-.068-1.069a.536.536,0,1,1,1.069-.069l.068,1.071a.536.536,0,0,1-.5.568l-.035,0Zm-77.37-1.6h-.036a.536.536,0,0,1-.5-.57l.073-1.071a.536.536,0,0,1,1.069.074l-.073,1.069a.536.536,0,0,1-.535.5Zm77.157-1.607a.536.536,0,0,1-.534-.5l-.078-1.069a.536.536,0,0,1,1.067-.1l0,.021.078,1.071a.536.536,0,0,1-.5.573h-.039Zm-76.929-1.6h-.041a.536.536,0,0,1-.494-.575h0q.041-.535.083-1.071a.536.536,0,1,1,1.068.084q-.042.534-.083,1.068a.536.536,0,0,1-.534.493ZM434.4,448.4a.536.536,0,0,1-.533-.493q-.043-.534-.088-1.068a.536.536,0,0,1,1.068-.089q.045.535.088,1.071a.536.536,0,0,1-.491.577H434.4Zm-76.427-1.6a.378.378,0,0,1-.046,0,.536.536,0,0,1-.488-.579q.046-.536.093-1.071a.536.536,0,0,1,1.068.082s0,.009,0,.013q-.047.534-.093,1.067a.536.536,0,0,1-.534.49Zm76.153-1.605a.536.536,0,0,1-.533-.488q-.046-.514-.094-1.027l0-.035a.536.536,0,1,1,1.066-.107l0,.05c.031.337.063.68.094,1.024a.536.536,0,0,1-.486.581h0Zm-75.847-1.6a.535.535,0,0,1-.536-.535.529.529,0,0,1,.007-.085,9.361,9.361,0,0,1,.245-1.11.536.536,0,1,1,1.03.295h0a8.338,8.338,0,0,0-.216.983.536.536,0,0,1-.529.452Zm75.29-1.56a.535.535,0,0,1-.505-.358,8.248,8.248,0,0,0-.392-.926.536.536,0,1,1,.948-.5l.011.021a9.189,9.189,0,0,1,.443,1.048.536.536,0,0,1-.328.683.528.528,0,0,1-.179.029Zm-74.227-1.458a.536.536,0,0,1-.463-.8,9.282,9.282,0,0,1,.628-.949.536.536,0,1,1,.855.646,8.2,8.2,0,0,0-.555.839.536.536,0,0,1-.466.267Zm72.629-1.312a.534.534,0,0,1-.407-.187,8.118,8.118,0,0,0-.7-.722.536.536,0,0,1,.721-.793h0a9.213,9.213,0,0,1,.792.817.536.536,0,0,1-.406.884Zm-70.547-1.119a.536.536,0,0,1-.336-.953,9.22,9.22,0,0,1,.929-.656.536.536,0,1,1,.6.886l-.039.024a8.164,8.164,0,0,0-.821.58A.533.533,0,0,1,361.425,438.145Zm68.051-.885a.532.532,0,0,1-.252-.063,8.111,8.111,0,0,0-.915-.418.536.536,0,0,1,.359-1.01l.024.009a9.182,9.182,0,0,1,1.036.473.536.536,0,0,1-.253,1.008Zm-65.229-.621a.536.536,0,0,1-.161-1.047,9.222,9.222,0,0,1,1.1-.273.536.536,0,0,1,.214,1.05l-.022,0a8.264,8.264,0,0,0-.976.241A.549.549,0,0,1,364.246,436.639Zm62.177-.339a.569.569,0,0,1-.065,0,8.35,8.35,0,0,0-.991-.059.543.543,0,0,1-.543-.536.529.529,0,0,1,.523-.536h.021a9.447,9.447,0,0,1,1.118.066.536.536,0,0,1-.063,1.068Zm-3.216-.063h-1.071a.536.536,0,1,1,0-1.071h1.071a.536.536,0,1,1,0,1.071Zm-3.218,0h-1.071a.536.536,0,1,1,0-1.071h1.071a.536.536,0,0,1,0,1.071Zm-3.218,0H415.7a.536.536,0,1,1,0-1.071h1.071a.536.536,0,1,1,0,1.071Zm-3.218,0h-1.071a.536.536,0,1,1,0-1.071h1.071a.536.536,0,1,1,0,1.071Zm-3.218,0h-1.073a.536.536,0,1,1,0-1.071h1.073a.536.536,0,1,1,0,1.071Zm-3.218,0h-1.073a.536.536,0,1,1,0-1.071h1.073a.536.536,0,1,1,0,1.071Zm-3.218,0h-1.073a.536.536,0,0,1,0-1.071H403.9a.536.536,0,1,1,0,1.071Zm-3.219,0h-1.071a.536.536,0,1,1,0-1.071h1.071a.536.536,0,1,1,0,1.071Zm-3.218,0H396.39a.536.536,0,1,1,0-1.071h1.071a.536.536,0,1,1,0,1.071Zm-3.218,0h-1.071a.536.536,0,1,1,0-1.071h1.071a.536.536,0,1,1,0,1.071Zm-3.218,0h-1.071a.536.536,0,1,1,0-1.071h1.071a.536.536,0,1,1,0,1.071Zm-3.218,0h-1.073a.536.536,0,1,1,0-1.071h1.073a.536.536,0,1,1,0,1.071Zm-3.218,0h-1.073a.536.536,0,1,1,0-1.071h1.074a.536.536,0,1,1,0,1.071Zm-3.218,0H380.3a.536.536,0,1,1,0-1.071h1.071a.536.536,0,1,1,0,1.071Zm-3.218,0H377.08a.536.536,0,1,1,0-1.071h1.071a.536.536,0,0,1,0,1.071Zm-3.218,0h-1.071a.536.536,0,1,1,0-1.071h1.071a.536.536,0,1,1,0,1.071Zm-3.218,0h-1.071a.536.536,0,1,1,0-1.071h1.071a.536.536,0,1,1,0,1.071Zm-3.218,0h-1.073a.536.536,0,1,1,0-1.071H368.5a.536.536,0,1,1,0,1.071Z" transform="translate(-305.194 -367.137)"/><path class="j" d="M416.277,510h-58.5a12.522,12.522,0,0,1-12.51-11.427,347.985,347.985,0,0,1,0-64.395,12.522,12.522,0,0,1,12.51-11.427h58.5a12.523,12.523,0,0,1,12.51,11.427,347.985,347.985,0,0,1,0,64.395A12.523,12.523,0,0,1,416.277,510Zm-58.5-86.981A12.256,12.256,0,0,0,345.538,434.2a347.726,347.726,0,0,0,0,64.345,12.256,12.256,0,0,0,12.243,11.184h58.5a12.256,12.256,0,0,0,12.243-11.184,347.732,347.732,0,0,0,0-64.345,12.256,12.256,0,0,0-12.243-11.184Z" transform="translate(-296.102 -358.048)"/><path class="j" d="M412.982,507.911h-58.5a13.723,13.723,0,0,1-13.71-12.52,349.239,349.239,0,0,1,0-64.619,13.723,13.723,0,0,1,13.71-12.521h58.5a13.724,13.724,0,0,1,13.71,12.521,349.238,349.238,0,0,1,0,64.619A13.723,13.723,0,0,1,412.982,507.911Zm-58.5-86.981a11.056,11.056,0,0,0-11.043,10.09,346.52,346.52,0,0,0,0,64.121,11.056,11.056,0,0,0,11.043,10.091h58.5a11.056,11.056,0,0,0,11.043-10.09,346.562,346.562,0,0,0,0-64.121,11.057,11.057,0,0,0-11.043-10.09Z" transform="translate(-292.808 -354.753)"/><path class="o" d="M409.513,387.99a655.267,655.267,0,0,1-67.519,0c-7.776-.4-13.689-7.727-13.615-16.69.1-12.307.559-24.345,1.366-36.182.568-8.336,6.676-14.981,14.06-15.34q31.948-1.556,63.9,0c7.383.36,13.492,7,14.059,15.34.806,11.837,1.263,23.874,1.366,36.182C423.2,380.263,417.289,387.589,409.513,387.99Z" transform="translate(-284.827 -282.086)"/><path class="p" d="M409.512,524.711a655.284,655.284,0,0,1-67.519,0c-7.482-.386-13.236-7.184-13.6-15.682-.006.557-.015,1.112-.02,1.67-.074,8.962,5.839,16.289,13.615,16.69a655.284,655.284,0,0,0,67.519,0c7.776-.4,13.689-7.728,13.615-16.69,0-.558-.014-1.113-.02-1.67C422.749,517.526,416.994,524.325,409.512,524.711Z" transform="translate(-284.826 -421.217)"/><path class="q" d="M330.15,372.058c.1-12.185.538-24.1,1.314-35.823.546-8.254,6.426-14.832,13.532-15.188a614.3,614.3,0,0,1,61.5,0c7.106.356,12.986,6.935,13.532,15.188.777,11.719,1.216,23.638,1.314,35.823a18.958,18.958,0,0,1-1.916,8.577,18.106,18.106,0,0,0,3.693-11.335c-.1-12.307-.559-24.345-1.366-36.182-.567-8.336-6.676-14.981-14.06-15.34q-31.949-1.556-63.9,0c-7.383.36-13.492,7-14.06,15.34-.806,11.837-1.263,23.874-1.366,36.182a18.107,18.107,0,0,0,3.693,11.336A18.957,18.957,0,0,1,330.15,372.058Z" transform="translate(-284.821 -280.621)"/><g class="r" transform="translate(67.756 50.899)"><path class="j" d="M441.916,395.174c-2.959,0-5.917-.017-8.855-.051-7.9-.128-14.315-6.175-14.315-13.48V376.48a5.207,5.207,0,0,1,5.281-5.058c11.871-.279,23.91-.279,35.781,0a5.207,5.207,0,0,1,5.281,5.058v5.068c0,7.359-6.466,13.449-14.414,13.577h-.006C447.764,395.158,444.84,395.174,441.916,395.174Zm8.737-1.389Zm-8.735-19.894c-5.956,0-11.913.07-17.828.209a2.585,2.585,0,0,0-2.665,2.381v5.163c0,5.852,5.237,10.7,11.674,10.8,5.814.068,11.716.068,17.537,0,6.383-.1,11.775-5.1,11.775-10.9v-5.065a2.585,2.585,0,0,0-2.665-2.381c-5.915-.139-11.87-.209-17.827-.209Z" transform="translate(-418.746 -371.213)"/></g><path class="j" d="M372.094,386.545c-11.3,0-22.606-.29-33.828-.869-8.427-.435-14.965-8.358-14.885-18.038.1-12.2.561-24.4,1.368-36.262.616-9.06,7.207-16.191,15.331-16.587,21.244-1.035,42.787-1.035,64.03,0,8.123.4,14.714,7.526,15.33,16.587.807,11.858,1.267,24.058,1.368,36.262.08,9.68-6.458,17.6-14.885,18.038l-.069-1.337.069,1.337C394.7,386.255,383.4,386.545,372.094,386.545Zm0-69.853c-10.653,0-21.306.258-31.885.773a12.637,12.637,0,0,0-8.664,4.247,16.2,16.2,0,0,0-4.125,9.847c-.8,11.8-1.262,23.951-1.362,36.1-.068,8.242,5.354,14.981,12.345,15.342a656.365,656.365,0,0,0,67.381,0c6.991-.361,12.413-7.1,12.345-15.342-.1-12.151-.558-24.3-1.362-36.1a16.2,16.2,0,0,0-4.125-9.847,12.634,12.634,0,0,0-8.664-4.247c-10.58-.516-21.231-.774-31.885-.774Z" transform="translate(-281.167 -278.434)"/><path class="j" d="M384.524,394.4h-1.114a.536.536,0,1,1,0-1.071h1.113a.536.536,0,1,1,0,1.071Zm2.145,0a.536.536,0,0,1,0-1.071l1.071,0h0a.536.536,0,1,1,0,1.071l-1.073,0Zm-5.4,0h0l-1.071-.006a.536.536,0,0,1,0-1.071h0l1.071.006a.536.536,0,1,1,0,1.071Zm8.62-.015a.536.536,0,0,1,0-1.071l1.071-.01h.006a.536.536,0,1,1,.005,1.071l-1.074.01Zm-11.837-.009h-.005l-1.071-.012a.536.536,0,0,1,.005-1.071h.006l1.071.012a.536.536,0,0,1-.005,1.071Zm15.068-.027a.542.542,0,0,1-.543-.528.53.53,0,0,1,.516-.543h0l1.071-.015a.542.542,0,0,1,.543.528.536.536,0,0,1-.528.544h0l-1.058.015Zm-18.284-.014h-.008l-1.073-.017a.536.536,0,1,1,.009-1.071h.009l1.071.017a.536.536,0,1,1-.008,1.071Zm21.485-.036a.536.536,0,1,1-.009-1.071l1.071-.02h.011a.536.536,0,0,1,.01,1.071l-1.073.02Zm-24.7-.02h-.011l-1.073-.022a.536.536,0,0,1,.011-1.071h.012l1.071.022a.536.536,0,1,1-.01,1.071Zm27.918-.047a.536.536,0,1,1-.012-1.071l1.071-.027h.014a.536.536,0,1,1,.013,1.071l-1.071.027ZM368.4,394.2h-.014l-1.071-.027a.536.536,0,0,1,.013-1.071h.014l1.071.027a.536.536,0,1,1-.013,1.071Zm34.364-.058a.542.542,0,0,1-.543-.52.529.529,0,0,1,.507-.55h.006l1.071-.031h.016a.536.536,0,0,1,.016,1.071l-1.057.031Zm-37.58-.029h-.016l-1.071-.032a.536.536,0,0,1-.519-.552.527.527,0,0,1,.535-.519h.017l1.071.032a.536.536,0,1,1-.016,1.071Zm40.781-.068a.536.536,0,0,1-.018-1.071l1.071-.036a.536.536,0,0,1,.037,1.071l-1.071.036Zm-44-.035h-.018l-1.071-.038a.536.536,0,0,1,.038-1.071l1.071.038a.536.536,0,0,1-.018,1.071Zm47.21-.079a.536.536,0,1,1-.02-1.071l1.071-.042a.536.536,0,1,1,.042,1.071l-1.071.042Zm-50.425-.039h-.021l-1.071-.043a.536.536,0,0,1-.513-.557.53.53,0,0,1,.545-.514h.012l1.071.043a.536.536,0,0,1-.021,1.071Zm53.64-.09a.536.536,0,0,1-.022-1.071l1.069-.047a.536.536,0,1,1,.048,1.071l-1.071.047Zm-56.854-.045h-.024l-1.071-.048a.536.536,0,1,1,.049-1.071l1.071.048a.536.536,0,0,1-.023,1.071Zm60.067-.1a.536.536,0,1,1-.027-1.071l1.071-.054a.544.544,0,0,1,.562.509.536.536,0,0,1-.508.562h0l-1.071.052Zm-63.28-.05H352.3l-1.071-.054a.536.536,0,1,1,.03-1.071h.024l1.071.054a.536.536,0,0,1-.027,1.071Zm66.489-.144a.536.536,0,0,1-.073-1.066,8.538,8.538,0,0,0,.987-.2.536.536,0,0,1,.3,1.03l-.023.006a9.648,9.648,0,0,1-1.113.223.566.566,0,0,1-.074,0Zm-69.68-.2a.535.535,0,0,1-.134-.017,9.743,9.743,0,0,1-1.079-.348.536.536,0,0,1,.388-1,8.663,8.663,0,0,0,.959.31.536.536,0,0,1-.134,1.054Zm72.722-.793a.536.536,0,0,1-.253-1.008,9.446,9.446,0,0,0,.867-.525.536.536,0,0,1,.6.884,10.473,10.473,0,0,1-.967.585A.531.531,0,0,1,421.858,392.467Zm-75.634-.532a.532.532,0,0,1-.3-.092,10.864,10.864,0,0,1-.9-.679.536.536,0,0,1,.68-.828l.008.007a9.931,9.931,0,0,0,.81.612.536.536,0,0,1-.3.98Zm78.186-1.4a.536.536,0,0,1-.384-.909c.235-.241.463-.5.678-.765a.536.536,0,0,1,.847.656l-.013.017c-.236.292-.486.574-.744.839a.534.534,0,0,1-.384.162Zm-80.54-.77a.535.535,0,0,1-.416-.2c-.232-.285-.455-.587-.667-.9a.536.536,0,1,1,.887-.6c.193.285.4.562.611.823a.536.536,0,0,1-.415.874Zm82.447-1.808a.536.536,0,0,1-.467-.8c.165-.295.321-.6.465-.918a.536.536,0,0,1,.974.446c-.155.34-.325.674-.5.995a.535.535,0,0,1-.469.274Zm-84.137-.919a.536.536,0,0,1-.487-.311c-.153-.332-.3-.678-.427-1.027a.536.536,0,1,1,1-.375c.121.324.254.645.4.952a.536.536,0,0,1-.486.76h0Zm85.363-2.048a.536.536,0,0,1-.515-.683c.094-.329.178-.667.248-1a.536.536,0,1,1,1.053.2c0,.008,0,.016-.005.024-.076.362-.165.723-.268,1.078a.536.536,0,0,1-.514.388Zm-86.37-1a.536.536,0,0,1-.523-.425c-.076-.358-.141-.725-.192-1.092a.536.536,0,0,1,1.061-.149c.048.343.107.686.179,1.019a.535.535,0,0,1-.413.635A.517.517,0,0,1,341.173,383.986Zm86.921-2.163h-.037a.536.536,0,0,1-.5-.571c.023-.342.035-.691.036-1.036a.536.536,0,0,1,.536-.536h0a.536.536,0,0,1,.536.536c0,.369-.013.741-.039,1.107a.536.536,0,0,1-.534.5Zm-87.258-1.031a.536.536,0,0,1-.536-.536V380.2l.009-1.021a.536.536,0,0,1,.536-.531h.005a.536.536,0,0,1,.53.541h0l-.009,1v.063A.536.536,0,0,1,340.836,380.793Zm87.275-2.185a.536.536,0,0,1-.536-.53l-.013-1.071a.536.536,0,0,1,.528-.543h.008a.536.536,0,0,1,.536.529l.013,1.074a.536.536,0,0,1-.53.541h-.006Zm-87.242-1.031h-.007a.536.536,0,0,1-.529-.543h0l.015-1.073a.536.536,0,0,1,.536-.527h.008a.536.536,0,0,1,.528.544h0l-.015,1.071a.536.536,0,0,1-.537.528Zm87.2-2.185a.536.536,0,0,1-.536-.527l-.019-1.071a.536.536,0,0,1,.526-.545h.01a.536.536,0,0,1,.536.526l.019,1.073a.536.536,0,0,1-.527.544h-.009Zm-87.146-1.03h-.01a.536.536,0,0,1-.526-.545h0l.021-1.074a.536.536,0,0,1,1.071.022l-.021,1.071A.536.536,0,0,1,340.918,374.361ZM428,372.176a.536.536,0,0,1-.536-.524l-.024-1.071a.536.536,0,1,1,1.071-.025l.024,1.071a.536.536,0,0,1-.524.547Zm-87.016-1.033h-.013a.536.536,0,0,1-.523-.548q.013-.537.027-1.074a.536.536,0,0,1,1.071.028h0q-.014.536-.027,1.071A.536.536,0,0,1,340.986,371.143Zm86.937-2.184a.536.536,0,0,1-.536-.521l-.03-1.071a.536.536,0,0,1,.52-.551h.016a.536.536,0,0,1,.536.52l.03,1.071a.536.536,0,0,1-.521.55Zm-86.853-1.032h-.016a.536.536,0,0,1-.52-.551l.032-1.073a.536.536,0,0,1,.536-.519h.017a.536.536,0,0,1,.519.552h0l-.032,1.071A.536.536,0,0,1,341.07,367.927Zm86.757-2.183a.536.536,0,0,1-.536-.519l-.036-1.071a.536.536,0,0,1,.517-.554h.019a.535.535,0,0,1,.536.517l.036,1.071a.536.536,0,0,1-.518.553h0Zm-86.656-1.033h-.019a.536.536,0,0,1-.517-.554h0l.038-1.071a.536.536,0,1,1,1.071.039l-.038,1.071A.536.536,0,0,1,341.171,364.711Zm86.543-2.182a.536.536,0,0,1-.536-.516q-.02-.536-.041-1.069a.536.536,0,1,1,1.071-.042q.021.536.041,1.071a.536.536,0,0,1-.516.555h0ZM341.289,361.5h-.021a.536.536,0,0,1-.514-.556l.043-1.071a.544.544,0,0,1,.557-.513.536.536,0,0,1,.513.557h0l-.043,1.071A.536.536,0,0,1,341.289,361.5Zm86.3-2.18a.536.536,0,0,1-.536-.513l-.047-1.07a.536.536,0,1,1,1.071-.048l.047,1.071a.536.536,0,0,1-.512.558Zm-86.16-1.035H341.4a.536.536,0,0,1-.511-.559l.049-1.073a.536.536,0,1,1,1.071.05l-.049,1.071A.536.536,0,0,1,341.425,358.282Zm86.014-2.178a.536.536,0,0,1-.536-.509l-.054-1.07a.536.536,0,1,1,1.069-.077c0,.008,0,.016,0,.024l.054,1.071a.536.536,0,0,1-.508.562h0Zm-85.862-1.036h-.027a.536.536,0,0,1-.509-.561h0l.054-1.071a.536.536,0,1,1,1.071.056h0l-.054,1.071a.536.536,0,0,1-.536.507Zm85.7-2.176a.536.536,0,0,1-.536-.507q-.028-.536-.058-1.068a.536.536,0,1,1,1.07-.06q.03.536.058,1.071a.536.536,0,0,1-.507.562l-.028,0Zm-85.528-1.037h-.03a.536.536,0,0,1-.505-.565h0l.061-1.071a.536.536,0,1,1,1.07.062h0l-.061,1.071A.536.536,0,0,1,341.746,351.854Zm85.347-2.174a.535.535,0,0,1-.534-.5l-.065-1.069a.536.536,0,1,1,1.068-.084c0,.006,0,.012,0,.018l.065,1.071a.536.536,0,0,1-.5.566h-.032Zm-85.159-1.038H341.9a.536.536,0,0,1-.5-.567l.066-1.071a.536.536,0,1,1,1.069.067h0l-.066,1.07A.536.536,0,0,1,341.934,348.642Zm84.959-2.171a.536.536,0,0,1-.536-.5q-.034-.534-.07-1.068a.536.536,0,0,1,1.067-.1c0,.009,0,.017,0,.026q.036.535.07,1.071a.536.536,0,0,1-.5.569h-.033Zm-84.755-1.041H342.1a.535.535,0,0,1-.5-.57l.054-.795c.007-.1.014-.191.022-.286a.536.536,0,0,1,1.067.095h0c-.008.088-.015.176-.021.265l-.054.793a.536.536,0,0,1-.533.5Zm84.475-2.161a.535.535,0,0,1-.528-.449c-.056-.338-.125-.678-.206-1.011a.536.536,0,1,1,1.041-.253c.087.359.162.726.222,1.09a.536.536,0,0,1-.441.616h0a.549.549,0,0,1-.087.007Zm-84.054-1.023a.523.523,0,0,1-.126-.015.536.536,0,0,1-.4-.646c.086-.359.188-.72.3-1.071a.536.536,0,0,1,1.02.329c-.105.326-.2.66-.279.993A.536.536,0,0,1,342.558,342.246Zm83.18-2.065a.536.536,0,0,1-.5-.332c-.131-.317-.275-.632-.429-.937a.536.536,0,0,1,.956-.482c.166.329.321.67.463,1.013a.536.536,0,0,1-.5.74Zm-82.079-.95a.536.536,0,0,1-.478-.777c.166-.331.348-.659.539-.975a.536.536,0,1,1,.921.548l0,.007c-.177.292-.344.6-.5.9a.536.536,0,0,1-.479.3Zm80.519-1.855a.536.536,0,0,1-.434-.221c-.2-.279-.417-.55-.637-.806a.536.536,0,0,1,.8-.718l.016.018c.241.279.473.573.693.876a.536.536,0,0,1-.433.851Zm-78.745-.819a.536.536,0,0,1-.406-.884c.244-.284.5-.559.764-.816a.536.536,0,1,1,.75.765c-.241.236-.477.488-.7.75a.535.535,0,0,1-.407.186Zm76.545-1.515a.534.534,0,0,1-.337-.119c-.268-.216-.543-.419-.823-.6a.536.536,0,0,1,.576-.9l.015.01c.307.2.612.429.905.664a.536.536,0,0,1-.337.952Zm-74.152-.617a.536.536,0,0,1-.3-.982,11.223,11.223,0,0,1,.967-.576.536.536,0,1,1,.515.94l-.014.008a10.039,10.039,0,0,0-.874.521A.536.536,0,0,1,347.826,334.426Zm71.391-1.009a.528.528,0,0,1-.2-.038,9.03,9.03,0,0,0-.959-.319.536.536,0,1,1,.281-1.034,10.141,10.141,0,0,1,1.073.358.536.536,0,0,1-.2,1.034Zm-68.484-.331a.536.536,0,0,1-.142-1.053,9.824,9.824,0,0,1,1.108-.237.536.536,0,1,1,.162,1.059,8.744,8.744,0,0,0-.987.211.535.535,0,0,1-.141.018Zm65.353-.326h-.027l-1.071-.051a.536.536,0,1,1,.05-1.071l1.071.051a.536.536,0,1,1-.027,1.071Zm-62.169-.05a.536.536,0,1,1-.025-1.071l1.071-.049a.536.536,0,1,1,.048,1.071l-1.069.049h-.025Zm58.956-.1h-.024l-1.071-.046a.536.536,0,0,1,.022-1.071h.023l1.073.046a.536.536,0,1,1-.023,1.071Zm-55.742-.045a.536.536,0,0,1-.022-1.071l1.071-.044a.536.536,0,0,1,.043,1.071l-1.071.044h-.021Zm52.528-.087h-.021l-1.071-.04a.536.536,0,0,1,.04-1.071l1.071.04a.536.536,0,1,1-.02,1.071Zm-49.314-.039a.536.536,0,1,1-.02-1.071l1.071-.039a.536.536,0,1,1,.037,1.071l-1.071.039Zm46.1-.077h-.018l-1.071-.035a.536.536,0,1,1,.034-1.071l1.071.035a.536.536,0,1,1-.018,1.071Zm-42.884-.034a.536.536,0,0,1-.017-1.071l1.071-.034a.536.536,0,0,1,.032,1.071l-1.071.033Zm39.667-.066h-.016l-1.071-.03a.536.536,0,0,1,.029-1.071l1.073.03a.536.536,0,1,1-.016,1.071Zm-36.453-.029a.536.536,0,0,1-.014-1.071l1.071-.028a.536.536,0,0,1,.027,1.071l-1.071.027Zm33.237-.055H400l-1.071-.025a.536.536,0,0,1,.024-1.071l1.071.025a.536.536,0,0,1-.012,1.071Zm-30.021-.024a.536.536,0,0,1-.012-1.071l1.073-.023a.53.53,0,0,1,.546.513s0,.008,0,.012a.536.536,0,0,1-.525.546h0l-1.071.023Zm26.806-.045h-.011l-1.071-.02a.536.536,0,1,1,.018-1.071h0l1.073.02a.536.536,0,1,1-.01,1.071Zm-23.59-.019a.536.536,0,0,1-.009-1.071l1.073-.018a.545.545,0,0,1,.544.527.536.536,0,0,1-.527.544h0l-1.071.017Zm20.373-.034h-.006l-1.071-.014a.536.536,0,1,1,.006-1.071h.007l1.073.014a.536.536,0,1,1-.007,1.071Zm-17.156-.014a.536.536,0,1,1-.006-1.071l1.073-.012h.006a.536.536,0,0,1,.005,1.071l-1.071.012Zm13.939-.023h0l-1.071-.009a.536.536,0,1,1,0-1.071h0l1.073.009a.536.536,0,0,1,0,1.071Zm-10.722-.009a.536.536,0,1,1,0-1.071l1.074-.007h0a.536.536,0,0,1,0,1.071l-1.071.007Zm7.506-.013h0l-1.071,0a.536.536,0,0,1,0-1.071h0l1.073,0a.536.536,0,1,1,0,1.071Zm-4.289,0a.536.536,0,0,1,0-1.071l1.074,0h0a.536.536,0,1,1,0,1.071l-1.071,0Z" transform="translate(-293.555 -290.815)"/><path class="s" d="M454.316,389.443q-8.788.1-17.576,0c-7.175-.116-12.99-5.628-12.99-12.141v-5.164a3.9,3.9,0,0,1,3.973-3.72q17.856-.419,35.718,0a3.9,3.9,0,0,1,3.973,3.72v5.068C467.412,383.741,461.519,389.327,454.316,389.443Z" transform="translate(-354.653 -318.114)"/><path class="t" d="M454.316,396.971q-8.788.1-17.576,0c-7.175-.117-12.99-5.628-12.99-12.141v4.57c0,6.513,5.816,12.025,12.99,12.141q8.788.1,17.576,0c7.2-.116,13.1-5.7,13.1-12.238v-4.57C467.412,391.27,461.519,396.855,454.316,396.971Z" transform="translate(-354.653 -330.212)"/><path class="u" d="M463.437,368.419q-17.856-.419-35.718,0a3.9,3.9,0,0,0-3.973,3.72v2.143a3.9,3.9,0,0,1,3.973-3.72q17.856-.419,35.718,0a3.9,3.9,0,0,1,3.973,3.72v-2.143A3.9,3.9,0,0,0,463.437,368.419Z" transform="translate(-354.651 -318.114)"/><path class="j" d="M441.916,387.174c-2.959,0-5.917-.017-8.855-.051-7.9-.128-14.315-6.175-14.315-13.48v-5.163a5.207,5.207,0,0,1,5.281-5.058c11.871-.279,23.91-.279,35.781,0a5.207,5.207,0,0,1,5.281,5.058v5.068c0,7.359-6.466,13.449-14.414,13.577h-.006C447.764,387.158,444.84,387.174,441.916,387.174Zm8.737-1.389Zm-8.735-19.894c-5.956,0-11.913.07-17.828.209a2.585,2.585,0,0,0-2.665,2.381v5.163c0,5.852,5.237,10.7,11.674,10.8,5.814.068,11.716.068,17.537,0,6.383-.1,11.775-5.1,11.775-10.9v-5.065a2.585,2.585,0,0,0-2.665-2.381c-5.915-.139-11.87-.209-17.827-.209Z" transform="translate(-350.99 -314.456)"/><path class="j" d="M441.916,387.174c-2.959,0-5.917-.017-8.855-.051-7.9-.128-14.315-6.175-14.315-13.48v-5.163a5.207,5.207,0,0,1,5.281-5.058c11.871-.279,23.91-.279,35.781,0a5.207,5.207,0,0,1,5.281,5.058v5.068c0,7.359-6.466,13.449-14.414,13.577h-.006C447.764,387.158,444.84,387.174,441.916,387.174Zm8.737-1.389Zm-8.735-19.894c-5.956,0-11.913.07-17.828.209a2.585,2.585,0,0,0-2.665,2.381v5.163c0,5.852,5.237,10.7,11.674,10.8,5.814.068,11.716.068,17.537,0,6.383-.1,11.775-5.1,11.775-10.9v-5.065a2.585,2.585,0,0,0-2.665-2.381c-5.915-.139-11.87-.209-17.827-.209Z" transform="translate(-350.99 -314.456)"/><g class="r" transform="translate(54.909 74.878)"><path class="j" d="M389.911,489.631h-12.6a1.339,1.339,0,0,1-1.18-.706l-3.9-7.274a11.735,11.735,0,0,1,2.61-14.461l5.623-5.255a4.744,4.744,0,0,1,6.308.011l5.623,5.285a11.7,11.7,0,0,1,2.606,14.424l-3.9,7.271A1.339,1.339,0,0,1,389.911,489.631Zm-11.8-2.678h11l3.525-6.57a9.094,9.094,0,0,0-2.081-11.2l-5.623-5.285a2.1,2.1,0,0,0-2.646-.009l-5.622,5.256a9.126,9.126,0,0,0-2.083,11.233Z" transform="translate(-370.782 -460.74)"/></g><g class="r" transform="translate(62.548 87.689)"><path class="j" d="M404.367,558.155a5.072,5.072,0,0,1-5.067-5.066v-43.18a1.339,1.339,0,0,1,1.339-1.339h7.455a1.339,1.339,0,0,1,1.339,1.339v43.18A5.073,5.073,0,0,1,404.367,558.155Zm-2.389-46.907v41.841a2.389,2.389,0,0,0,4.777.051c0-.017,0-.034,0-.051v-41.84Z" transform="translate(-399.3 -508.57)"/></g><path class="l" d="M384.4,488.278h11.47l3.553-6.939a10.263,10.263,0,0,0-2.134-12.217l-5.116-5.039a3.006,3.006,0,0,0-4.076-.01l-5.116,5.013a10.321,10.321,0,0,0-2.135,12.256Z" transform="translate(-322.398 -387.722)"/><path class="j" d="M389.911,482.632h-12.6a1.339,1.339,0,0,1-1.18-.706l-3.9-7.274a11.734,11.734,0,0,1,2.61-14.461l5.623-5.256a4.745,4.745,0,0,1,6.308.012l5.623,5.285a11.7,11.7,0,0,1,2.606,14.424l-3.9,7.271A1.339,1.339,0,0,1,389.911,482.632Zm-11.8-2.678h11l3.525-6.57a9.094,9.094,0,0,0-2.081-11.2l-5.623-5.285a2.1,2.1,0,0,0-2.646-.009l-5.622,5.256a9.124,9.124,0,0,0-2.083,11.233Z" transform="translate(-315.873 -380.737)"/><path class="j" d="M399.924,544.977h-.4a.4.4,0,0,1-.354-.212l-.19-.352a.4.4,0,0,1,.708-.38l.077.142h.161a.4.4,0,1,1,0,.8Z" transform="translate(-336.486 -446.698)"/><path class="j" d="M387.787,488.142a.4.4,0,0,1-.354-.212l-.379-.706a.4.4,0,1,1,.708-.38l.378.705a.4.4,0,0,1-.354.592Zm11.549-.009a.4.4,0,0,1-.354-.592l.378-.705a.4.4,0,1,1,.708.38l-.379.705A.4.4,0,0,1,399.336,488.133Zm-12.811-2.343a.4.4,0,0,1-.354-.212l-.378-.7a.4.4,0,0,1,.7-.4l.012.022.379.7a.4.4,0,0,1-.354.591Zm14.073-.009a.4.4,0,0,1-.354-.592l.378-.705a.4.4,0,0,1,.708.38l-.378.706a.4.4,0,0,1-.354.212Zm-15.289-2.365a.4.4,0,0,1-.373-.254,8.113,8.113,0,0,1-.269-.8.4.4,0,0,1,.773-.217,7.313,7.313,0,0,0,.243.719.4.4,0,0,1-.225.522.409.409,0,0,1-.15.028Zm16.507-.008a.4.4,0,0,1-.149-.029.4.4,0,0,1-.224-.522,7.473,7.473,0,0,0,.246-.718.4.4,0,0,1,.773.221h0a8.265,8.265,0,0,1-.273.8.4.4,0,0,1-.372.252Zm-17.038-2.593a.4.4,0,0,1-.4-.392c0-.058,0-.117,0-.175,0-.221.01-.446.029-.668a.4.4,0,0,1,.8.069c-.017.2-.027.4-.027.6,0,.052,0,.1,0,.156a.4.4,0,0,1-.392.411h-.009Zm17.582,0h-.009a.4.4,0,0,1-.393-.41h0c0-.056,0-.112,0-.168,0-.194-.008-.392-.025-.589a.4.4,0,0,1,.8-.087l0,.017c.019.22.029.441.028.658,0,.061,0,.123,0,.185a.4.4,0,0,1-.4.393h0Zm-17.17-2.618a.4.4,0,0,1-.38-.532c.09-.263.195-.526.311-.78a.4.4,0,0,1,.731.334h0a7.6,7.6,0,0,0-.282.706A.4.4,0,0,1,385.189,478.194Zm16.75,0a.4.4,0,0,1-.379-.268,7.526,7.526,0,0,0-.289-.7.4.4,0,1,1,.727-.343c.12.255.227.517.32.777a.4.4,0,0,1-.379.536Zm-1.28-2.328a.4.4,0,0,1-.319-.156c-.153-.2-.319-.4-.493-.587a.4.4,0,0,1,.568-.568l.025.027c.19.207.37.422.537.638a.4.4,0,0,1-.318.647Zm-14.215-.01a.4.4,0,0,1-.32-.644c.167-.22.346-.437.533-.643a.4.4,0,1,1,.6.535l0,0c-.171.189-.335.388-.488.589a.4.4,0,0,1-.321.159Zm12.358-1.9a.4.4,0,0,1-.275-.109l-.583-.549a.4.4,0,0,1,.54-.595l.01.01.583.548a.4.4,0,0,1-.275.695Zm-10.507-.015a.4.4,0,0,1-.275-.7l.585-.547a.4.4,0,0,1,.549.587l-.585.549a.4.4,0,0,1-.274.107Zm8.563-1.813a.4.4,0,0,1-.275-.109l-.584-.548a.4.4,0,0,1,.55-.585l.584.548a.4.4,0,0,1-.275.695Zm-6.614-.01a.4.4,0,0,1-.274-.7l.585-.547a.4.4,0,1,1,.549.587l-.585.547a.4.4,0,0,1-.274.11Zm4.669-1.818a.4.4,0,0,1-.275-.109l-.583-.548a.4.4,0,1,1,.54-.595l.01.009.583.548a.4.4,0,0,1-.275.695Zm-2.72,0a.4.4,0,0,1-.274-.7l.585-.547a.4.4,0,1,1,.555.581l-.006.006-.585.547a.4.4,0,0,1-.275.109Z" transform="translate(-325.824 -391.863)"/><path class="j" d="M434.018,544.923h-.4a.4.4,0,0,1,0-.8h.161l.077-.143a.4.4,0,1,1,.715.366l-.008.014-.19.354A.4.4,0,0,1,434.018,544.923Z" transform="translate(-361.584 -446.644)"/><path class="j" d="M412.941,545.911h-.7a.4.4,0,0,1,0-.8h.7a.4.4,0,1,1,0,.8Zm-2.323,0h-.7a.4.4,0,1,1,0-.8h.7a.4.4,0,1,1,0,.8Zm-2.323,0h-.7a.4.4,0,0,1,0-.8h.7a.4.4,0,1,1,0,.8Z" transform="translate(-342.534 -447.632)"/><path class="v" d="M404.416,507.351h7.456v43.18a3.728,3.728,0,0,1-3.728,3.728h0a3.728,3.728,0,0,1-3.728-3.728h0v-43.18Z" transform="translate(-340.498 -419.988)"/><path class="w" d="M408.145,663a3.728,3.728,0,0,1-3.728-3.728h0v2.489a3.728,3.728,0,0,0,7.455,0v-2.489A3.728,3.728,0,0,1,408.145,663Z" transform="translate(-340.499 -531.22)"/><rect class="w" width="7.456" height="6.035" transform="translate(63.918 109.626)"/><path class="j" d="M405.215,552.4a4.8,4.8,0,0,1-4.8-4.8V504.422a1.071,1.071,0,0,1,1.071-1.071h7.456a1.071,1.071,0,0,1,1.071,1.071V547.6A4.8,4.8,0,0,1,405.215,552.4Zm-2.656-46.907V547.6a2.656,2.656,0,0,0,5.313,0V505.494Z" transform="translate(-337.57 -417.06)"/><path class="x" d="M395.928,587.467v-5.488h7.456v5.488h3.107v-7.091a1.5,1.5,0,0,0-1.5-1.5h-10.66a1.5,1.5,0,0,0-1.5,1.5h0v7.091Z" transform="translate(-332.01 -472.354)"/><path class="j" d="M403.556,585.61h-3.107a1.071,1.071,0,0,1-1.071-1.071v-4.417h-5.312v4.417a1.071,1.071,0,0,1-1.071,1.071h-3.107a1.071,1.071,0,0,1-1.071-1.071v-6.117a3.553,3.553,0,0,1,3.548-3.548h8.714a3.553,3.553,0,0,1,3.548,3.548v6.117A1.071,1.071,0,0,1,403.556,585.61Zm-2.036-2.143h.964v-5.046a1.408,1.408,0,0,0-1.406-1.406h-8.714a1.408,1.408,0,0,0-1.406,1.406v5.046h.964v-4.417a1.071,1.071,0,0,1,1.071-1.071h7.456a1.071,1.071,0,0,1,1.071,1.071Z" transform="translate(-329.076 -469.425)"/><path class="j" d="M412.274,519.923a.536.536,0,0,1-.379-.914l2.462-2.462a.536.536,0,1,1,.771.744l-.013.013-2.462,2.462A.536.536,0,0,1,412.274,519.923Z" transform="translate(-345.859 -426.601)"/><path class="j" d="M414.754,519.958a.536.536,0,0,1-.379-.157l-2.462-2.462a.536.536,0,0,1,.758-.757l2.462,2.462a.536.536,0,0,1-.379.914Z" transform="translate(-345.877 -426.636)"/><circle class="x" cx="1.239" cy="1.239" r="1.239" transform="translate(66.376 113.719)"/><path class="j" d="M413.367,605.3a1.774,1.774,0,1,1,1.774-1.774h0A1.776,1.776,0,0,1,413.367,605.3Zm0-2.477a.7.7,0,1,0,.7.7.7.7,0,0,0-.7-.7Z" transform="translate(-345.753 -489.103)"/><circle class="x" cx="1.239" cy="1.239" r="1.239" transform="translate(66.376 118.004)"/><path class="j" d="M413.367,623.3a1.774,1.774,0,1,1,1.774-1.774A1.774,1.774,0,0,1,413.367,623.3Zm0-2.478a.7.7,0,1,0,.7.7.7.7,0,0,0-.7-.7Z" transform="translate(-345.753 -502.282)"/><circle class="x" cx="1.239" cy="1.239" r="1.239" transform="translate(66.376 123.451)"/><path class="j" d="M413.367,643.637a1.774,1.774,0,1,1,1.774-1.775A1.774,1.774,0,0,1,413.367,643.637Zm0-2.478a.7.7,0,1,0,.7.7h0A.7.7,0,0,0,413.367,641.159Z" transform="translate(-345.753 -517.173)"/><path class="x" d="M415.747,574.873h0a.9.9,0,0,1,.9.9v7.869a.9.9,0,0,1-.9.9h0a.9.9,0,0,1-.9-.9v-7.869A.9.9,0,0,1,415.747,574.873Z" transform="translate(-348.132 -469.425)"/><path class="j" d="M414.283,583.62a1.441,1.441,0,0,1-1.44-1.44v-7.869a1.44,1.44,0,0,1,2.879,0v7.87A1.441,1.441,0,0,1,414.283,583.62Zm0-9.677a.369.369,0,0,0-.368.368v7.87a.368.368,0,0,0,.737,0v-7.869a.369.369,0,0,0-.368-.368Z" transform="translate(-346.668 -467.96)"/><g class="r" transform="translate(101.294 75.146)"><path class="j" d="M563.087,490.632h-12.6a1.339,1.339,0,0,1-1.179-.706l-3.9-7.274a11.734,11.734,0,0,1,2.61-14.461l5.62-5.256a4.745,4.745,0,0,1,6.309.012l5.623,5.285a11.7,11.7,0,0,1,2.605,14.424l-3.9,7.271A1.34,1.34,0,0,1,563.087,490.632Zm-11.8-2.678h11l3.525-6.57a9.093,9.093,0,0,0-2.081-11.2l-5.623-5.285a2.1,2.1,0,0,0-2.646-.009l-5.621,5.256a9.124,9.124,0,0,0-2.084,11.233Z" transform="translate(-543.96 -461.741)"/></g><path class="l" d="M557.572,488.278h11.47l3.553-6.939a10.263,10.263,0,0,0-2.135-12.217l-5.116-5.039a3.006,3.006,0,0,0-4.076-.01l-5.116,5.013a10.32,10.32,0,0,0-2.134,12.256Z" transform="translate(-449.189 -387.722)"/><path class="j" d="M563.087,482.632h-12.6a1.339,1.339,0,0,1-1.179-.706l-3.9-7.274a11.735,11.735,0,0,1,2.61-14.461l5.62-5.256a4.745,4.745,0,0,1,6.309.012l5.623,5.285a11.7,11.7,0,0,1,2.605,14.424l-3.9,7.271A1.34,1.34,0,0,1,563.087,482.632Zm-11.8-2.678h11l3.525-6.57a9.093,9.093,0,0,0-2.081-11.2l-5.623-5.285a2.1,2.1,0,0,0-2.646-.009l-5.621,5.256a9.124,9.124,0,0,0-2.084,11.233Z" transform="translate(-442.667 -380.737)"/><path class="j" d="M573.1,544.977h-.4a.4.4,0,0,1-.354-.212l-.191-.352a.4.4,0,0,1,.708-.38l.076.142h.161a.4.4,0,0,1,0,.8Z" transform="translate(-463.277 -446.698)"/><path class="j" d="M560.961,488.141a.4.4,0,0,1-.354-.212l-.378-.706a.4.4,0,0,1,.709-.379l.379.706a.4.4,0,0,1-.354.592Zm11.549-.008a.4.4,0,0,1-.354-.592l.378-.705a.4.4,0,1,1,.708.38h0l-.379.705A.4.4,0,0,1,572.51,488.133ZM559.7,485.79a.4.4,0,0,1-.354-.212l-.378-.7a.4.4,0,1,1,.7-.4l.012.022.378.7a.4.4,0,0,1-.354.592Zm14.073-.008a.4.4,0,0,1-.354-.592l.378-.706a.4.4,0,1,1,.708.38h0l-.378.706a.4.4,0,0,1-.354.212Zm-15.288-2.365a.4.4,0,0,1-.373-.254,8.19,8.19,0,0,1-.269-.8.4.4,0,1,1,.765-.245c0,.009.006.018.008.028a7.464,7.464,0,0,0,.244.719.4.4,0,0,1-.373.55Zm16.506-.007a.4.4,0,0,1-.149-.029.4.4,0,0,1-.224-.522,7.427,7.427,0,0,0,.246-.718.4.4,0,0,1,.773.222h0a8.276,8.276,0,0,1-.273.8.4.4,0,0,1-.373.252Zm-17.038-2.594a.4.4,0,0,1-.4-.392c0-.058,0-.117,0-.175,0-.221.01-.446.029-.668a.4.4,0,0,1,.8.069c-.017.2-.027.4-.027.6,0,.052,0,.1,0,.156a.4.4,0,0,1-.392.411h-.009Zm17.582,0h-.009a.4.4,0,0,1-.393-.41h0c0-.056,0-.112,0-.168,0-.2-.009-.394-.025-.589a.4.4,0,0,1,.8-.07h0c.019.217.028.438.028.658q0,.093,0,.186a.4.4,0,0,1-.4.393Zm-17.17-2.618a.4.4,0,0,1-.38-.532q.136-.4.312-.78a.4.4,0,1,1,.737.32l-.007.014a7.593,7.593,0,0,0-.282.706A.4.4,0,0,1,558.363,478.193Zm16.75,0a.4.4,0,0,1-.379-.268,7.528,7.528,0,0,0-.289-.7.4.4,0,1,1,.727-.343c.12.255.227.517.32.777a.4.4,0,0,1-.379.536Zm-1.28-2.328a.4.4,0,0,1-.319-.157c-.152-.2-.318-.4-.493-.586a.4.4,0,0,1,.593-.542c.19.208.371.423.536.639a.4.4,0,0,1-.318.647Zm-14.215-.01a.4.4,0,0,1-.321-.643c.167-.22.346-.437.532-.643a.4.4,0,0,1,.6.538c-.171.19-.335.388-.488.589a.4.4,0,0,1-.32.158Zm12.358-1.9a.4.4,0,0,1-.275-.109l-.583-.548a.4.4,0,0,1,.55-.586h0l.583.548a.4.4,0,0,1-.275.695Zm-10.508-.015a.4.4,0,0,1-.274-.7l.585-.547a.4.4,0,1,1,.563.573l-.014.013-.585.547a.4.4,0,0,1-.275.109Zm8.563-1.812a.4.4,0,0,1-.275-.109l-.583-.548a.4.4,0,1,1,.54-.595l.01.01.583.548a.4.4,0,0,1-.275.694Zm-6.613-.01a.4.4,0,0,1-.275-.7l.585-.547a.4.4,0,0,1,.549.587l-.585.547a.4.4,0,0,1-.274.108Zm4.669-1.817a.4.4,0,0,1-.275-.109l-.583-.548a.4.4,0,0,1,.54-.595l.01.01.583.548a.4.4,0,0,1-.275.694Zm-2.72-.005a.4.4,0,0,1-.274-.7l.585-.547a.4.4,0,1,1,.555.581l-.006.006-.585.547a.4.4,0,0,1-.275.109Z" transform="translate(-452.615 -391.862)"/><path class="j" d="M607.192,544.942h-.4a.4.4,0,1,1,0-.8h.161l.076-.142a.4.4,0,0,1,.708.38l-.19.354A.4.4,0,0,1,607.192,544.942Z" transform="translate(-488.375 -446.663)"/><path class="j" d="M586.115,545.911h-.7a.4.4,0,0,1,0-.8h.7a.4.4,0,0,1,0,.8Zm-2.323,0h-.7a.4.4,0,0,1,0-.8h.7a.4.4,0,0,1,0,.8Zm-2.323,0h-.7a.4.4,0,0,1,0-.8h.7a.4.4,0,1,1,0,.8Z" transform="translate(-469.325 -447.632)"/><g class="r" transform="translate(108.962 87.631)"><path class="j" d="M577.657,557.937a5.073,5.073,0,0,1-5.067-5.067V509.69a1.339,1.339,0,0,1,1.339-1.339h7.456a1.339,1.339,0,0,1,1.339,1.339v43.18A5.073,5.073,0,0,1,577.657,557.937Zm-2.389-46.907v41.84a2.389,2.389,0,0,0,4.777,0v-41.84Z" transform="translate(-572.59 -508.351)"/></g><path class="v" d="M577.59,507.351h7.456v43.18a3.728,3.728,0,0,1-3.728,3.728h0a3.728,3.728,0,0,1-3.728-3.728h0v-43.18Z" transform="translate(-467.289 -419.988)"/><path class="w" d="M581.318,662.689a3.728,3.728,0,0,1-3.728-3.727h0V661.8a3.728,3.728,0,0,0,7.455,0v-2.839A3.728,3.728,0,0,1,581.318,662.689Z" transform="translate(-467.289 -530.991)"/><rect class="w" width="7.456" height="6.035" transform="translate(110.27 109.626)"/><path class="j" d="M578.389,552.4a4.8,4.8,0,0,1-4.8-4.8V504.422a1.071,1.071,0,0,1,1.071-1.071h7.456a1.071,1.071,0,0,1,1.071,1.071V547.6A4.8,4.8,0,0,1,578.389,552.4Zm-2.656-46.907V547.6a2.656,2.656,0,0,0,5.313,0V505.494Z" transform="translate(-464.36 -417.06)"/><path class="x" d="M569.1,587.467v-5.488h7.455v5.488h3.107v-7.091a1.5,1.5,0,0,0-1.5-1.5H567.5a1.5,1.5,0,0,0-1.5,1.5h0v7.091Z" transform="translate(-458.8 -472.354)"/><path class="j" d="M576.73,585.61h-3.107a1.071,1.071,0,0,1-1.071-1.071v-4.417H567.24v4.417a1.071,1.071,0,0,1-1.071,1.071h-3.107a1.071,1.071,0,0,1-1.071-1.071v-6.117a3.553,3.553,0,0,1,3.548-3.548h8.714a3.552,3.552,0,0,1,3.548,3.548v6.117A1.071,1.071,0,0,1,576.73,585.61Zm-2.036-2.143h.964v-5.046a1.407,1.407,0,0,0-1.406-1.406h-8.714a1.407,1.407,0,0,0-1.406,1.406v5.046h.964v-4.417a1.071,1.071,0,0,1,1.071-1.071h7.456a1.071,1.071,0,0,1,1.071,1.071Z" transform="translate(-455.867 -469.425)"/><path class="j" d="M585.447,519.941a.536.536,0,0,1-.379-.914l2.462-2.462a.536.536,0,0,1,.757.757l-2.462,2.462A.535.535,0,0,1,585.447,519.941Z" transform="translate(-472.649 -426.619)"/><path class="j" d="M587.923,519.958a.536.536,0,0,1-.379-.157l-2.462-2.462a.536.536,0,0,1,.757-.757l2.462,2.462a.536.536,0,0,1-.379.914Z" transform="translate(-472.664 -426.636)"/><circle class="x" cx="1.239" cy="1.239" r="1.239" transform="translate(112.759 113.719)"/><path class="j" d="M586.541,605.3a1.774,1.774,0,1,1,1.774-1.774h0A1.776,1.776,0,0,1,586.541,605.3Zm0-2.477a.7.7,0,1,0,.7.7.7.7,0,0,0-.7-.7Z" transform="translate(-472.544 -489.103)"/><circle class="x" cx="1.239" cy="1.239" r="1.239" transform="translate(112.759 118.004)"/><path class="j" d="M586.541,623.3a1.774,1.774,0,1,1,1.774-1.774A1.774,1.774,0,0,1,586.541,623.3Zm0-2.478a.7.7,0,1,0,.7.7.7.7,0,0,0-.7-.7Z" transform="translate(-472.544 -502.282)"/><circle class="x" cx="1.239" cy="1.239" r="1.239" transform="translate(112.759 123.451)"/><path class="j" d="M586.541,643.637a1.774,1.774,0,1,1,1.774-1.775A1.774,1.774,0,0,1,586.541,643.637Zm0-2.478a.7.7,0,1,0,.7.7h0A.7.7,0,0,0,586.541,641.159Z" transform="translate(-472.544 -517.173)"/><path class="x" d="M588.921,574.873h0a.9.9,0,0,1,.9.9v7.869a.9.9,0,0,1-.9.9h0a.9.9,0,0,1-.9-.9v-7.869A.9.9,0,0,1,588.921,574.873Z" transform="translate(-474.923 -469.425)"/><path class="j" d="M587.457,583.62a1.441,1.441,0,0,1-1.44-1.44v-7.869a1.44,1.44,0,0,1,2.879,0v7.87A1.441,1.441,0,0,1,587.457,583.62Zm0-9.677a.369.369,0,0,0-.368.368v7.87a.368.368,0,0,0,.737,0v-7.869a.369.369,0,0,0-.368-.368Z" transform="translate(-473.459 -467.96)"/><path class="x" d="M578.43,397.741h0a2.372,2.372,0,0,0,3.708,0h0a2.372,2.372,0,0,0,.3-2.478l-2.15-4.624-2.15,4.623A2.371,2.371,0,0,0,578.43,397.741Z" transform="translate(-467.525 -334.536)"/><path class="j" d="M578.089,397.241h0a3.175,3.175,0,0,1-2.878-4.514l2.15-4.624a.8.8,0,0,1,1.457,0l2.15,4.624a3.175,3.175,0,0,1-2.879,4.514Zm0-6.893-1.421,3.057a1.558,1.558,0,0,0,.2,1.638h0a1.56,1.56,0,0,0,1.226.589h0a1.568,1.568,0,0,0,1.422-2.229Z" transform="translate(-465.331 -332.34)"/><path class="j" d="M466.065,393.911h-1.339V391.5h1.339Zm-2.411,0h-1.339V391.5h1.339Zm-2.411,0H459.9V391.5h1.339Zm-2.411,0h-1.339V391.5h1.339Zm-2.411,0h-1.339V391.5h1.339Zm-2.411,0h-1.339V391.5h1.339Zm-2.411,0h-1.339V391.5H451.6Zm-2.411,0h-1.339V391.5h1.339Zm-2.411,0h-1.339V391.5h1.339Zm-2.411,0h-1.339V391.5h1.339Zm-2.411,0H440.62V391.5h1.339Zm-2.411,0h-1.339V391.5h1.339Zm-2.411,0H435.8V391.5h1.339Zm-2.411,0h-1.339V391.5h1.339Zm-2.411,0h-1.339V391.5h1.339Zm-2.411,0h-1.339V391.5h1.339Zm-2.411,0h-1.339V391.5H427.5Zm-2.411,0h-1.339V391.5h1.339Z" transform="translate(-354.651 -335.167)"/><ellipse class="y" cx="8.77" cy="5.389" rx="8.77" ry="5.389" transform="translate(82.157 119.166)"/><path class="z" d="M481.283,627.61c4.424,0,8.082,2.013,8.682,4.63a3.365,3.365,0,0,0,.088-.759c0-2.976-3.927-5.389-8.77-5.389s-8.77,2.413-8.77,5.389a3.386,3.386,0,0,0,.088.759C473.2,629.623,476.859,627.61,481.283,627.61Z" transform="translate(-390.356 -506.926)"/><path class="aa" d="M481.283,648.806c-3.882,0-7.228-1.278-8.764-3.12,0,.047-.006.094-.006.141,0,2.976,3.927,5.389,8.77,5.389s8.77-2.413,8.77-5.389c0-.047,0-.094-.006-.141C488.511,647.528,485.166,648.806,481.283,648.806Z" transform="translate(-390.356 -521.271)"/><path class="j" d="M479.087,635.478c-5.368,0-9.574-2.72-9.574-6.193s4.205-6.192,9.574-6.192,9.573,2.72,9.573,6.192S484.455,635.478,479.087,635.478Zm0-10.778c-4.318,0-7.967,2.1-7.967,4.585s3.648,4.585,7.967,4.585,7.966-2.1,7.966-4.585S483.4,624.7,479.087,624.7Z" transform="translate(-388.16 -504.73)"/><path class="j" d="M479.087,635.478c-5.368,0-9.574-2.72-9.574-6.193s4.205-6.192,9.574-6.192,9.573,2.72,9.573,6.192S484.455,635.478,479.087,635.478Zm0-10.778c-4.318,0-7.967,2.1-7.967,4.585s3.648,4.585,7.967,4.585,7.966-2.1,7.966-4.585S483.4,624.7,479.087,624.7Z" transform="translate(-388.16 -504.73)"/><path class="j" d="M517.952,645.063a.4.4,0,0,1-.141-.777c1.563-.587,2.407-1.454,2.407-1.972a1.253,1.253,0,0,0-.4-.748.4.4,0,1,1,.581-.555l.006.007a1.968,1.968,0,0,1,.616,1.3c0,.987-1.149,2.057-2.928,2.725A.4.4,0,0,1,517.952,645.063Z" transform="translate(-423.332 -517.758)"/><path class="j" d="M508.771,635.437a.4.4,0,0,1-.19-.048,9.539,9.539,0,0,0-4.423-1,.4.4,0,0,1,0-.8h0a10.343,10.343,0,0,1,4.8,1.093.4.4,0,0,1-.19.756Z" transform="translate(-413.232 -512.413)"/><g class="b" transform="translate(19.867)"><circle class="d" cx="17.074" cy="17.074" r="17.074"/><line class="ab" y2="1.668" transform="translate(17.074 1.743)"/><line class="ab" y2="1.668" transform="translate(17.074 30.737)"/><line class="ab" x1="1.668" transform="translate(30.737 17.074)"/><line class="ab" x1="1.668" transform="translate(1.743 17.074)"/><circle class="ac" cx="1.379" cy="1.379" r="1.379" transform="translate(15.695 15.695)"/><line class="ad" y1="9.112" x2="7.363" transform="translate(17.074 7.962)"/><line class="ab" x2="4.645" y2="4.556" transform="translate(12.428 12.518)"/></g></g></g></svg>