<svg xmlns="http://www.w3.org/2000/svg" width="1433.76" height="344.034" viewBox="0 0 1433.76 344.034"><defs><style>.a{fill:none;stroke:#fff;}</style></defs><path class="a" d="M17923.318,5767.071c.348-32.543-9.533-69.728.387-105.235-1.68-47.761,3.217-55.92-.387-97.028-1.826-20.844,5.9-50.935-1.324-79.778.092-5.2.2-10.194.328-15.23.441-17.691,1-30.685,1-30.685s29.064,11.473,62.176,0,32.688,8.63,83.3,0,58.072,12.521,127.424,0,125.586-11.909,207.322,0,170.316-9.562,239.715,0,114.4,0,151.994,0h107.609s58.34-19.066,152.344,0,161,0,161,0h133.455s5.295,41.558,0,79.066a270.933,270.933,0,0,0,0,71.229s4.859,30.136-1.211,56.316c-.021,1.932-.041,3.877-.062,6.186,3.773,19.614-.008,46.375,1.273,58.329,3.012,28.061,0,45.976,0,45.976s-56.98,20.293-104.295,10.856-143.734,6.5-190.156,0-107.367,11.979-148.982,2.049-196.873,1.194-210.369-2.049c-24.947-5.992-133.146-7.955-181.139,0s-199.477,7.813-235.725,0c-18.885-4.069-126.309,7.825-202.232-2.8C18017,5758.641,17923.318,5767.071,17923.318,5767.071Z" transform="translate(-17918.773 -5429.451)"/></svg>