<svg xmlns="http://www.w3.org/2000/svg" width="43.332" height="53.755" viewBox="0 0 43.332 53.755"><g transform="translate(-41.535)"><g transform="translate(41.535)"><circle cx="3.409" cy="3.409" r="3.409" transform="translate(0 1.704)"/><path d="M44.957,187.037a3.409,3.409,0,1,0,3.409,3.409A3.409,3.409,0,0,0,44.957,187.037Z" transform="translate(-41.548 -163.568)"/><circle cx="3.409" cy="3.409" r="3.409" transform="translate(0 45.233)"/><path d="M192.991,0H172.669V11.8h20.322V0ZM175.947,3.278h7.539a.983.983,0,1,1,0,1.967h-7.539a.983.983,0,0,1,0-1.967Zm14.094,5.9H175.947a.983.983,0,0,1,0-1.967h14.094a.983.983,0,1,1,0,1.967Z" transform="translate(-156.215)"/><path d="M172.669,167.184v11.8h26.877v-11.8Zm3.278,3.278h7.539a.983.983,0,0,1,0,1.967h-7.539a.983.983,0,0,1,0-1.967Zm14.094,5.9H175.947a.983.983,0,1,1,0-1.967h14.094a.983.983,0,1,1,0,1.967Z" transform="translate(-156.215 -146.206)"/><path d="M172.669,346.167h20.322v-11.8H172.669Zm3.278-8.522h7.539a.983.983,0,1,1,0,1.967h-7.539a.983.983,0,0,1,0-1.967Zm0,3.933h14.094a.983.983,0,1,1,0,1.967H175.947a.983.983,0,1,1,0-1.967Z" transform="translate(-156.215 -292.412)"/><path d="M62.955,88.082h1.311V75.233l-1.311.066Z" transform="translate(-60.267 -65.793)"/><rect width="1.311" height="13.111" transform="translate(2.688 31.466)"/></g></g></svg>